<svg id="big_logo" data-name="big logo" xmlns="http://www.w3.org/2000/svg" viewBox="0 0 1113 1225" shape-rendering="geometricPrecision" text-rendering="geometricPrecision" image-rendering="optimizeQuality"><defs><style>.cls-1,.cls-2{fill:#fff;fill-rule:evenodd}.cls-2{fill:#786956}</style></defs><path id="Color_Fill_1" data-name="Color Fill 1" class="cls-1" d="M619.676 0C672.987-.782 727.405-1.517 769.1 10.987c57.193 17.15 91.126 53.939 134.043 84.6 93.513 66.8 183.8 137.385 209.855 271.368 11.88 61.074-15.78 145.862-31.86 183.475-6.94 16.24-19.12 32.057-20.88 52.735 19.09 35.679 35.56 74.639 43.95 123.05 8.33 48.042-7.65 99.522-18.68 135.134C1045.63 990.2 944.214 1125.31 775.694 1066.79c-32.779 38.04.446 108.42-20.876 139.53-6.268 9.15-17.017 12.27-29.665 15.38-67.771 16.68-63.33-62.97-118.661-68.11-10.2 13.72-35.286 26.96-58.232 17.58-29.684-12.15-41.865-37.22-80.207-43.95-18.745-3.29-35.313 4.53-47.245 9.89-43.349 19.45-131.493 35.86-183.485 14.28-26.162-10.86-45.85-41.53-26.369-73.61-35.363-48.32-58.681-79.535-76.911-148.318-60.2-13.216-99.47-37.742-119.76-90.09-46.144-119.053 24.557-279.481 87.9-329.6 19.166-15.165 39.209-32.059 70.318-35.157 14.386-184.585 65.057-287.594 176.893-374.641 31.3-24.362 58.464-52.392 97.786-69.215C479.591 16.9 521.063 11.537 559.247 4.395z"/><path id="logo" class="cls-2" d="M641.639 44.016c41.691-.287 82.806-.139 114.8 9.478 16.411 4.932 31.726 10.932 45.11 18.956 10.158 6.09 18.751 13.8 27.968 20.761l40.373 30.24c25.972 18.582 49.931 39.013 74.658 58.673l27.291 25.05c13.862 11.188 27.756 26.776 38.8 40.846 19.97 25.455 39.62 51.343 50.52 85.979 3.36 10.657 4.96 21.824 6.99 34.076q.345 7.221.68 14.443.12 6.995.23 13.991c0 11.481-.08 22.674-1.81 32.722-2.31 13.488-2.97 25.887-6.09 38.138-7.79 30.609-18.13 57.835-29.32 85.077q-9.465 21.888-18.95 43.78c-1.72 3.665-6.88 12.263-4.96 15.12 8.28 4.05 18.99 21.156 24.14 29.337 12.35 19.658 19.09 41.5 24.58 68.828 2.01 10 .73 20.22 2.48 31.142 1.5 9.375.77 28.507-.67 37.236l-2.49 27.757c-3.82 20.348-7.16 39.3-12.85 57.32-22.28 70.589-64.66 124.548-126.31 155.934-14.474 7.37-29.918 12.6-47.366 17.38-6.755 1.85-16.659 4.46-25.938 2.93-18.857-3.11-32.814-6.93-47.817-13.09-8.079-3.31-21.393-10.27-30.675-11.05-24.721 13.48-42.975 54.16-48.718 87.56l1.8 77.63a14.632 14.632 0 0 1-8.8.22c-4.858-1.22-6.191-4.65-10.647-11.31a182.935 182.935 0 0 0-16.419-19.61c-16.267-14.39-31.84-29.02-54.583-37.01-9.873-3.46-25.029-5.07-35.637-.9-10.958 4.31-16.573 11.74-24.36 18.96h-.451c-5.586-7.18-15.079-12.97-22.555-18.28-25.516-18.12-64.459-36.03-110.068-25.28-17.549 4.14-33.444 13.16-46.8 16.58-14.45 3.71-23.059 5.29-34.4 7.35-12.555 1.68-18.08 2.56-37.77 4.32-12.857 1.18-33.771.66-46.586-.71-6.281-.68-12.893-1.48-19.849-4.67a7.775 7.775 0 0 1-4.285-5.72h.226c.843 2.74 21.431 4.79 29.547 4.07a269.673 269.673 0 0 0 29.29-4.08c15.833-3.18 29.574-8.45 41.758-17.36 36.111-26.41 57.1-67.71 74.657-112.836 6.051-15.548 9.069-32.742 13.984-49.2 4.69-15.7 7.4-31.617 10.6-49.422a153.565 153.565 0 0 0 2.223-21.653c.143-6.944 1.632-7.411 5.552 1.666 5.747 11.869 11.789 26.41 14.329 44.36h.226c.689-3.151 2.059-6.277 2.706-9.93 1.527-8.613 1.064-16.446.5-27.211-1.257-20.369-2.475-29.7-3.209-39.361-.226-4.889-1.006-9.619-1.232-14.508-1.691-10.353-2.4-19.191-4.182-29.5-2.274-13.185-5.832-27.191 4.06-34.979a48.291 48.291 0 0 1 15.58-8.116c23.3-7.148 55.148 2.461 76.011 6.77 6.292 1.3 15.582 3.1 23.457 1.805 8.906-1.463 17.124-1.532 24.81-3.836 31.768-9.523 56.432-28.518 74.883-51.452 8.365-10.4 20.375-16.712 25.713-30.24 11.251-28.515-2.8-77.253-10.15-100.648-20.93-66.578-67.824-115.171-129.693-140.591-13.368-5.493-27.669-9.387-43.757-12.638l-17.367-1.579-16.466-.226-15.337 1.58c-18.1 3.629-34.466 7.808-46.463 17.376-13.294 10.6-26.077 38.119-44.434 41.523q-1.915-6.091-3.834-12.186c-3.43-11.342-5.184-23.467-13.984-29.337-9.23-6.157-26.6-3.939-37.216-.677-28.314 8.7-47.01 22.546-63.379 42.877l-16.917 17.377c-16.786 20.843-30.73 31.38-36.313 64.541-.83 4.926-.067 11.531.677 15.571 2.813 15.292 5.843 27.9 9.7 41.974 1.136 4.146 4.744 15.84 3.609 20.762-.929 4.026-4.508 7.067-6.766 9.929-7.709 9.771-17.713 17.531-25.262 27.306-15.721 20.357-27.226 50.53-34.509 78.984-4.116 16.079-5.315 34.642-8.324 52.64-.3 8.349-.809 15.532-1.11 23.881.213 21.038-.486 19.855 0 31.655.305 7.409 2.34 33.778-1.844 35.8-3.765 2.16-13.017-.069-16.916-.9-17.175-3.673-29.545-8.742-41.276-17.377-19.956-14.69-32.184-36.218-39.246-63.864-10.411-40.757-6.178-100.456 6.992-134.273 5.19-13.326 9.726-25.674 16.691-36.783 2.118-3.379 4.95-10.587 9.7-11.059l.225.226c4 2.05 3.384 11.346 3.383 17.377 0 14.169-2.435 29.765 1.128 42.425 7.838-.219 8.243-10.624 10.15-16.7 3.691-11.762 11.842-36.924 25.713-37.235v.451c2.027 4.863-3.147 17.953-4.286 22.116-4.01 14.664-4.31 32.355-4.285 49.646.01 6.581-.746 23.417 2.481 26.178l.451-.451c9.494-4.729 12.533-32.006 16.24-43.78 5.628-17.877 11.481-36.026 20.3-50.775 7.845-13.123 17.782-24.118 25.712-37.01 3.536-5.748 15.977-25.506 9.248-35.2-2.8-4.038-10.776-1.769-15.338-.451a49 49 0 0 0-14.661 6.77c-2.374 1.691-4.592 5.091-7.668 5.867-3.366.849-5.8-1.578-7.443-2.708.236-7.723 8.936-11.891 7.668-19.859-3.106-3.8-9.758-1.117-12.856.9-7.064 4.607-12.42 11.082-18.946 16.248-2.175 1.721-4.8 4.984-8.345 4.513v-.225q3.832-6.544 7.668-13.089c9.2-12.993 22.358-26.706 37.667-33.4 19.631-8.583 41.267-3.567 52.1-21.89 8.475-14.331 6.588-37.692 10.15-57.094 5.464-29.77 7.546-60.675 13.758-89.139l4.962-24.6a319.259 319.259 0 0 1 29.547-69.28c5.771-9.907 10.43-20.173 16.917-29.337 9.7-13.709 21-26.245 31.351-39.266 13.166-16.562 29.586-34.361 46.012-47.616 20.952-16.907 39.514-37.221 62.7-51.9 25.691-16.268 54.517-27.35 88.417-35.884 13.617-3.428 28.115-4.7 42.629-7.221L601.04 45.6l13.984-.677zM470.446 307.37a16.962 16.962 0 0 0-13.984-16.47c-3.68-.675-6.124 1.07-8.571 1.805 3.038-14.212 25.493-20.73 45.11-17.151 33.247 6.067 52.076 25.7 89.544 26.4-3.509-26.507-20.974-58.367-39.02-70.408-7.106-4.741-17.847-10.165-29.322-8.124.817-4.629 3.941-7.483 6.992-9.93 2.563-2.055 4.656-4.664 7.894-6.092 16.4-7.237 42.377-3.341 58.418 1.579 29.954 9.188 55.773 23.112 78.717 39.492 9.393 6.706 17.449 14.945 26.389 22.116 10.849 8.7 20.3 18.131 33.382 24.823 3.7 1.892 9.292 6.067 15.337 4.965 12.551-2.289 8.243-22.187 4.962-31.368-1.4-3.91-5.377-8.5-.226-9.7 8.649-2.026 17.889 1.459 23.457 4.288 16.987 8.629 28.883 22.631 39.472 37.686 42.534 60.477 47.425 163.013 53.906 258.842l13.308 4.513c8.325 2.642 17.2 4.5 24.359 8.35q2.818-8.236 5.639-16.474c3.632-11.451 6.507-23.283 9.248-35.655 5.251-23.712 6.157-48.475 10.375-73.568l1.579-27.08.451-20.762-.226-16.925-.451-19.633v-28.213l-.451-22.115c-2.211-13.7-1.317-27.307-4.06-39.718-8.522-38.56-24.175-66.622-44.884-92.524a174.747 174.747 0 0 0-25.939-25.952c-21.485-17.3-41.014-37.195-68.792-48.293-30.534-12.2-79.366-10.514-114.354-3.159-11.783 2.477-23.731 3.54-34.284 6.77-50.54 15.469-85.487 42.646-122.248 71.311-36.679 28.6-78.8 67.936-98.565 112.834-4.045 9.19-6.672 18.707-10.15 28.886 5.314-.121 10.356-1.889 14.886-3.16l31.577-7.9c6.339-1.756 12.922-4.246 20.525-4.286zM317.523 498.06h.677q-2.256 3.948-4.511 7.9l-7.889 16.924c-6.993 16.88-10.5 35.11-15.337 54.611l-4.512 23.7h-1.127a17.808 17.808 0 0 0-10.15 0l-.451-.452c-5.382-7.5-5.93-28.225-3.609-39.492 5.289-25.677 15.114-45.923 34.058-57.771 3.894-2.442 8.52-3.161 12.851-5.42zm216.077 6.77c4.908-.034 8.623 1.208 12.406 2.031q-2.144 5.754-4.286 11.509l-10.375 25.73c-7 16.551-14.157 32.75-21.2 48.745-3.958 8.987-8 18.679-14.21 25.5-10.5-1.26-14.869-12.166-23.908-15.345-1.339-8.966 5.676-26.824 8.12-34.527 7.679-24.205 14.65-44.892 34.058-57.1a46.262 46.262 0 0 1 12.856-5.641zm-196.454 98.391c-11.486.006-22.966-.411-34.283-.225v-.226c5.472-11.719 13.6-19.02 28.87-20.987 4.167 5.484 5.438 11.276 5.413 21.438zm64.508-7.446c5.293-.1 25.288 1.347 27.066 3.159q1.126 5.867 2.255 11.734c.474 2.178 2.579 9.786 1.128 11.51-11.446 12.209-37.731-3.849-47.14-7.9l-11.729-3.836.451-.451c2.531-7 11.473-11.184 19.172-13.089zm451.325 28.208c.132-12.973-11.323-15.308-22.555-17.151h-7.669l-9.022 7.9c-25.562 25.565-42.678 56.859-53.906 97.037-3.105 11.11-9.993 28.909-2.03 39.492 1.223 1.625 2.591 3.63 4.962 4.062 3.971-3.934 7.345-11.4 16.014-9.7 8.969 7.972 6.937 33.728 9.924 48.293l3.384 12.412.225-.451c3.27-4.515 4.576-11.321 6.541-16.925 6.151-17.541 10.094-37.2 15.789-55.289 8.188-26.016 22.58-44.424 36.088-64.767a125.793 125.793 0 0 0 14.66-29.111c1-2.89 3.527-8.878 2.707-12.186-1.781-4.245-9.01-3.747-15.112-3.616zm-569.965 20.085c34.686-.628 62.425 19.277 77.59 38.137 4.067 5.06 8.905 9.64 12.856 14.894a186.793 186.793 0 0 1 29.321 57.546c16.076 51.5 6.252 124.41-8.119 169.928-3.878 12.283-9.408 23.681-14.21 34.979-9.189 21.62-15.178 39.279-41.05 44.458a56.714 56.714 0 0 1-18.721.22q-6.879-1.575-13.759-3.16c-13.755-4.334-23.123-11.79-33.606-19.177-2.908-2.05-10.5-8.278-16.24-6.77-5.551 1.458-8.328 11.463-10.375 16.7l-4.06 12.638c-6.307 25.27 33.08 33.24 48.719 40.85l-.226.45c-5.326 2.24-8.787 6.97-15.112 8.57-8.941 2.26-18.9-.49-25.036-3.16-18.88-8.19-28.74-26.46-39.02-43.33a295.276 295.276 0 0 1-23.683-47.611c-13.4-34.492-15.014-79.865-15.112-127.277-.038-18.837-2.063-40.41.9-58 2.056-12.191 2.979-23.857 6.315-34.527 11.793-37.72 35.509-67.424 66.763-85.754a88.009 88.009 0 0 1 22.78-8.8zm619.812 4.513l-5.639 1.354a52.27 52.27 0 0 0-12.631 7.221c-7.552 5.791-12.163 14.162-17.142 22.567-13.889 23.449-21.866 51.306-29.321 81.466-2.931 11.856-3.327 24.42-5.413 37.235-.947 5.817-1.166 14.071 3.157 15.8 5.588 2.232 10.247-3.47 11.954-6.318 2.291-3.822 2.738-9.411 4.06-14.217l8.12-30.917c8.54-27.154 21.879-46.675 37.441-66.346 6.849-8.658 17.017-14.145 22.781-23.921 7.338-12.451-4.07-24.096-17.367-23.924z"/></svg>