<svg xmlns="http://www.w3.org/2000/svg" height="197" width="1920" version="1" viewBox="0 0 19200 1970"><g fill="#69ba5e"><path d="M100 1959c0-6 13-24 29-40 48-48 106-35 125 29 7 22 6 22-73 22-51 0-81-4-81-11zM320 1965c0-16 31-63 45-69 51-19 94 2 109 52 7 22 6 22-73 22-45 0-81-2-81-5zM542 1948c26-39 61-51 102-34 19 8 39 24 46 35 10 21 9 21-76 21h-86l14-22zM770 1950c14-27 42-40 84-40 29 0 38 5 51 30l16 30h-81c-77 0-80-1-70-20zM990 1961c0-15 48-41 75-41 34 0 65 17 65 35 0 12-15 15-70 15-38 0-70-4-70-9zM1200 1935c10-46 35-83 65-97 19-9 30-6 59 12 33 20 36 25 36 71v49h-168l8-35zM1414 1914c7-61 17-87 49-121 27-30 58-29 96 3 29 25 31 29 31 100v74h-183l7-56zM1644 1864c1-98 3-107 25-125 13-10 38-19 55-19 56 0 63 13 71 138l7 112h-159l1-106zM1850 1938c0-91 49-168 106-168 30 0 37 5 49 33 7 17 16 62 20 100l7 67h-182v-32zM2095 1940c36-71 117-66 139 8 7 22 6 22-74 22h-81l16-30zM2305 1943c23-99 155-100 155-2v29h-162l7-27zM2527 1833c3-116 6-140 21-151 45-34 105-22 122 24 6 14 13 80 17 145l6 119h-170l4-137zM2733 1713c3-179 9-273 19-308 13-45 17-50 53-59 35-8 41-6 61 18 41 46 45 85 37 354l-6 252h-169l5-257zM2967 1793c5-165 6-179 26-196 28-25 75-18 99 14 29 39 37 91 38 232v127h-168l5-177zM3178 1582c-3-214-2-408 2-431 9-49 53-101 86-101 31 0 60 41 73 101 12 55 15 525 4 707l-6 112h-154l-5-388zM3397 1450c-3-287-1-569 4-628 8-101 11-109 39-135 66-59 106-28 120 94 11 94 13 903 3 1077l-6 112h-154l-6-520zM3620 1543c0-482 10-666 37-695 26-29 73-20 100 20 37 55 39 106 36 705l-3 397h-170v-427zM3840 1708c0-145 3-348 7-451 6-183 7-189 29-204 13-8 38-16 56-17 29-1 35 4 52 38 22 45 23 60 19 579l-3 317h-160v-262zM4062 1664c5-291 6-307 26-326 17-17 27-19 67-14 37 6 48 12 57 34 14 32 23 431 13 538l-7 74h-161l5-306zM4270 1928c0-67 27-227 40-243 14-17 95-21 105-5 6 10 34 224 35 268 0 21-3 22-90 22h-90v-42zM4503 1933c7-43 52-93 83-93 36 0 71 40 78 88l6 42h-173l6-37zM4710 1958c0-38 23-145 36-169 12-24 21-29 53-29 21 0 43 6 49 13 9 10 42 160 42 188 0 5-40 9-90 9-65 0-90-3-90-12zM4942 1829c5-161 9-169 83-169 69 0 75 14 75 173v137h-163l5-141zM5161 1808c2-198 5-219 43-236 23-12 34-12 64 0 31 12 37 20 49 63 7 29 13 109 13 193v142h-170l1-162zM5383 1768c3-112 9-216 13-231 4-19 17-32 42-43 32-13 37-13 54 3 40 36 55 152 50 376l-2 97h-163l6-202zM5602 1734l4-236 24-20c19-15 34-19 64-15 21 3 43 10 49 16 7 7 13 98 15 251l4 240h-164l4-236zM5823 1743c6-216 8-227 29-250 17-18 31-23 58-21 33 3 36 6 53 58 22 64 33 250 23 363l-8 77h-161l6-227zM6043 1615c6-392 7-397 67-410 23-5 37-2 51 11 38 35 43 84 44 426v328h-168l6-355zM6262 1698c-1-293 7-356 48-393 19-18 24-18 47-5 14 8 35 28 47 43 20 27 21 41 23 328l2 299h-166l-1-272zM6474 1883c-4-51-2-141 4-212 12-134 21-155 74-166 24-6 35-2 55 17 33 33 40 95 35 291l-4 157h-156l-8-87zM6702 1179c6-764 7-793 26-818 23-31 81-41 102-16 34 41 36 108 32 873l-4 752h-161l5-791zM6922 1013c4-659 9-967 17-985 9-25 15-28 61-28 79 0 85 15 85 230 0 350-16 1597-21 1668l-6 72h-141l5-957zM7141 1303c0-368 3-699 8-737 9-80 33-109 85-104 25 2 35 11 51 43 19 39 20 63 23 753l3 712h-171l1-667zM7355 1528c4-244 9-580 10-748s6-324 10-348c18-107 135-83 149 31 3 23 7 372 10 775l4 732h-191l8-442zM7580 1593c0-208 5-542 10-743 10-355 11-365 32-383 34-28 78-19 102 22 29 51 34 159 20 451-7 140-13 429-14 643v387h-150v-377zM7805 1548c8-481 6-471 78-466 33 2 44 8 54 28 24 52 33 191 33 521v339h-172l7-422zM8016 1948c-9-37-7-275 4-373 12-98 24-120 75-130 53-11 67 10 76 111 4 49 8 162 8 252l1 162h-79c-73 0-79-2-85-22zM8242 1878c13-158 17-176 45-198 76-59 122 25 123 223v67h-176l8-92zM8450 1933c0-62 20-115 56-151 52-52 75-43 96 38 9 36 17 84 17 108l1 42h-170v-37zM8686 1858c5-98 9-115 27-131 23-20 82-16 103 6 6 7 14 63 18 125l6 112h-160l6-112zM8906 1853c3-65 9-122 11-127 12-19 72-36 96-27 28 11 33 25 47 146 15 138 23 125-76 125h-85l7-117zM9114 1918c4-29 9-74 12-100 6-52 17-64 64-78 54-16 68 12 95 188l7 42h-184l6-52zM9340 1946c0-39 41-91 76-94 43-4 84 36 84 83v35h-80c-77 0-80-1-80-24zM9550 1848c0-145 10-188 51-222 32-27 69-28 97-1 20 18 36 178 28 268l-8 77h-168v-122zM9780 1737c0-231 0-234 23-255 30-29 102-31 116-4 17 33 31 182 31 339v153h-170v-233zM10000 1781v-189l35-31c41-36 58-38 84-12 32 32 42 87 48 259l6 162h-173v-189zM10210 1936c0-72 20-140 50-170 27-27 32-29 67-20 34 8 38 13 45 49 4 22 7 70 7 108l1 67h-170v-34zM10436 1943c20-83 61-113 119-88 19 7 35 18 35 22 1 4 5 27 9 51l8 42h-177l6-27zM10650 1935c0-75 45-135 102-135 37 0 56 31 66 108l9 62h-177v-35zM10882 1770c5-227 7-235 78-235 72 0 75 8 78 235l4 200h-165l5-200zM11102 1713c4-301 4-303 77-303 31 0 53 5 61 15 11 13 26 280 29 508l1 37h-172l4-257zM11313 1788c7-219 13-233 93-233 68 0 73 13 81 234l6 181h-186l6-182zM11530 1947c0-41 28-118 51-143 27-29 58-31 92-4 23 18 26 29 29 95l3 75h-87c-86 0-88-1-88-23zM11750 1923c0-27 5-65 10-85 12-42 61-88 94-88 44 0 53 19 61 123l6 97h-171v-47zM11976 1943c19-171 26-209 41-220 26-20 69-15 96 10 23 20 26 32 30 130l6 107h-176l3-27zM12190 1908c0-81 15-136 47-170 69-73 103-26 128 180l7 52h-182v-62zM12426 1868c2-116 9-128 78-128 67 0 71 6 73 125l2 105h-154l1-102zM12630 1952c0-10 5-44 11-75 20-96 75-132 133-86 24 19 26 26 26 100v79h-85c-76 0-85-2-85-18zM12852 1919c9-86 70-144 125-117 28 13 32 25 47 126l6 42h-183l5-51zM13084 1928c9-60 35-92 77-96 47-4 75 28 82 91l5 47h-171l7-42zM13300 1949c0-28 53-79 82-79 37 0 65 26 70 65l4 35h-78c-72 0-78-2-78-21zM13537 1955c3-9 19-23 35-31 27-14 32-13 66 3 62 31 53 43-32 43-64 0-74-2-69-15zM13762 1928c19-35 29-44 55-46 38-4 83 33 83 68 0 18-6 20-81 20h-80l23-42zM13964 1948c3-13 6-28 6-34 0-21 49-64 73-64 13 0 36 9 51 21 20 16 26 29 26 60v39h-81c-79 0-81-1-75-22zM14181 1938c22-80 79-109 132-68 21 17 27 30 27 61v39h-169l10-32zM14394 1954c3-9 6-22 6-29s12-28 26-45c49-58 122-28 139 58l7 32h-92c-80 0-91-2-86-16zM14630 1949c0-24 51-79 73-79 27 0 77 50 77 76 0 23-2 24-75 24-69 0-75-2-75-21zM14832 1833c5-148 19-202 58-223 36-19 72-8 93 28 22 37 35 204 23 286l-7 46h-172l5-137zM15055 1893c-11-110 2-576 17-653 11-55 17-67 41-78 26-12 31-11 63 13 19 15 39 38 45 52 5 13 9 184 9 384v359h-168l-7-77zM15285 1579c6-422 8-442 59-455 41-10 60 0 81 41 18 36 20 65 23 300 2 143 1 315-3 383l-7 122h-157l4-391zM15502 1749l3-221 29-24c36-32 72-28 100 9 20 26 21 43 24 243l3 214h-163l4-221zM15710 1938c1-92 98-193 138-145 13 16 42 122 42 154 0 22-3 23-90 23h-90v-32zM15940 1961c0-20 46-61 75-67 35-6 69 16 80 54 6 22 5 22-74 22-45 0-81-4-81-9zM16166 1958c33-59 82-73 128-37 48 37 35 49-55 49-61 0-79-3-73-12zM16373 1938c13-81 53-126 101-114 29 7 65 62 73 111l6 35h-186l6-32zM16586 1928c8-53 25-86 58-117 23-22 31-23 63-15 42 10 50 27 52 122l1 52h-180l6-42zM16822 1928c24-109 119-117 157-15 21 55 19 57-78 57h-89l10-42zM17050 1960c0-6 12-22 26-37 20-20 31-24 57-19 30 6 67 37 67 57 0 5-34 9-75 9-46 0-75-4-75-10zM17260 1951c0-11 12-33 26-50 21-25 34-31 65-31 40 0 54 15 73 78 7 22 6 22-78 22-78 0-86-2-86-19zM17480 1945c22-57 41-75 79-75 48 0 67 16 75 63l7 37h-171l10-25zM17709 1938c7-34 27-45 88-47 34-1 63 27 63 61 0 16-10 18-79 18h-78l6-32zM17957 1949c35-23 82-20 104 7 10 12 1 14-62 14h-74l32-21zM18150 1950c22-41 94-55 122-22 35 40 33 42-52 42-77 0-80-1-70-20zM18355 1948c18-63 72-100 122-82 21 7 29 19 39 57l12 47h-90c-88 0-89 0-83-22zM18580 1862c0-94 3-111 19-126 30-27 82-31 111-8 23 19 25 27 28 131l4 111h-162v-108zM18800 1877c0-52 3-129 7-171 7-90 27-113 86-102 64 12 65 15 73 199l7 167h-173v-93zM19022 1773c3-215 8-234 58-252 27-9 34-7 63 19l32 28 3 201 4 201h-164l4-197z"/></g></svg>