<svg xmlns="http://www.w3.org/2000/svg" viewBox="0 0 128 128"><defs><style>.cls-1{fill:#685a4a;fill-rule:evenodd}</style></defs><path id="Color_Fill_1" data-name="Color Fill 1" class="cls-1" d="M61.859.245C93.124-.2 114.135 18.3 123.105 40.138c2.067 5.031 3.173 10.424 4.283 16.642l.306 5.078a29.631 29.631 0 0 1-.306 8.75q-.368 2.722-.734 5.445a70.618 70.618 0 0 1-3.671 12.3c-7.617 17.953-21.407 30.723-40.872 36.833a89.122 89.122 0 0 1-10.891 2.2l-5.078.367a34.463 34.463 0 0 1-8.749-.367c-2.356-.409-4.5-.438-6.669-.979A79.116 79.116 0 0 1 38 122.187C20.617 114.562 8.53 100.64 2.692 81.438.53 74.325-.848 63.248.918 54.455A73.36 73.36 0 0 1 3.977 42.34C11.2 23.794 23.8 11.212 42.34 3.977 46.3 2.43 50.669 1.672 55.312.8zM51.09 47.847H39.771V64H51.09v48.459h20.987V64h14.256l1.9-16.153H72.077c-.015-2.745.028-6.851 0-10.1a6.8 6.8 0 0 1 1.163-4.283c.927-1.091 2.9-1.615 5.309-1.714 3.206-.132 7.05-.01 9.682 0V15.541H77.155c-1.674 0-3.276-.083-4.772 0-9.546.53-15.3 3.063-18.637 8.915-1.941 3.4-2.656 8.2-2.656 14.458v8.933z"/></svg>