<svg xmlns="http://www.w3.org/2000/svg" baseProfile="basic" viewBox="0 0 64 64"><path fill="#67b65c" d="M43.136 7.912v36.032a12.173 12.173 0 0 0-9.28-4.288c-6.656 0-12.032 5.184-12.032 11.584S27.2 62.824 33.856 62.824c6.592 0 11.968-5.184 11.968-11.584V18.472L64 12.392V1L43.136 7.912zM33.856 60.2c-5.12 0-9.28-4.032-9.28-8.96s4.16-8.96 9.28-8.96 9.28 4.032 9.28 8.96-4.16 8.96-9.28 8.96zm27.392-49.664L45.824 15.72V9.768l15.424-5.12v5.888zM0 6.376h35.584V9H0V6.376m0 13.12h35.584v2.624H0v-2.624m0 13.12h35.584v2.624H0v-2.624m0 13.056h17.792v2.624H0v-2.624"/></svg>