<?xml version="1.0" encoding="UTF-8" standalone="no"?>
<!DOCTYPE svg  PUBLIC '-//W3C//DTD SVG 1.1 Basic//EN'  'http://www.w3.org/Graphics/SVG/1.1/DTD/svg11-basic.dtd'>
<svg xmlns="http://www.w3.org/2000/svg" xml:space="preserve" baseProfile="basic" version="1.1" xmlns:xlink="http://www.w3.org/1999/xlink" viewBox="0 0 64 64">
  <path fill="#67b65c" transform="matrix(.064 0 0 .064 0 2)" d="m996 599l-200-325 23-74c2-4 2-9 2-14 0-23-18-41-41-41h-1c-8 0-16 3-23 7l-11 8c-1-2-2-3-3-5l-5-7c-13-18-29-41-49-70-34-51-87-78-151-78-66 0-130 29-162 46-15 8-24 24-22 41 0 0 1 1 1 2l-170 288-58 5c-18 2-32 14-37 31-4 17 3 35 18 44l11 7c-1 2-3 5-4 7l-3 4-1 2c-13 17-28 40-48 69-62 92-29 204 89 298 8 6 17 9 26 9h5 401 1l38 46c8 10 20 15 33 15 4 0 9 0 14-2 16-6 27-21 27-38v-14h100c113 0 189-90 202-239 1-2 0-4 0-6 2-5 1-11-2-16zm-60-18c-2 2-4 3-6 5-14 12-47 37-85 48l-165-260 49 5h4c18 0 34-12 40-29l7-23 156 254zm-267 9c-5-2-10-3-14-3-13 0-24 6-32 15l-44 53h-321c11-16 22-32 32-47l4-5c3-5 7-10 10-15l10 6c7 5 15 7 23 7 9 0 17-2 25-8 14-10 20-28 15-44l-24-78 156-260c10 14 20 29 30 43l18 27 2 2-10 6c-14 10-21 28-17 44 4 17 19 29 36 31l60 6 172 269h-104v-11c0-17-11-32-27-38zm-132-550c50 1 90 21 117 61 20 29 36 52 48 70 12 17 21 30 27 39 2 3 4 4 6 4s3-1 4-2l41-26-47 152-161-15 39-25c1-1 2-3 3-4 0-2 0-4-1-6l-21-30c-19-27-41-60-62-91-36-52-103-76-135-85 26-14 84-41 142-42zm-154 81c21 6 68 22 99 54l-145 243-7-22c-5-18-22-29-40-29h-4l-51 5 148-251zm-287 448c21-30 37-53 49-71 12-17 20-30 27-39 1-1 1-3 1-5s-2-4-3-5l-40-26 160-15 47 152-39-25c-1-1-2-1-4-1s-4 1-6 3c-8 13-20 30-32 48-16 23-34 48-50 72-35 52-32 123-29 155-41-32-153-136-81-243zm123 243v-4c-3-22-6-72 13-113l313 1-24 29c-13 15-13 36 0 51l29 36h-331zm577 7h-134c-4 0-7 3-7 7v48l-102-123 102-123v45c0 4 3 7 7 7h148c63 0 122-42 147-63-5 51-30 202-161 202z"/>
</svg>
