<svg xmlns="http://www.w3.org/2000/svg" baseProfile="basic" viewBox="0 0 64 64"><path fill="#67b65c" d="M29.888 57.296h7.296v2.88h-7.296v-2.88m-14.528 0h7.296v2.88H15.36v-2.88m14.528-38.4l.512.32h6.784v-2.88h-7.296zM5.952 55.12H3.136v5.056h4.992v-2.88H5.952zM3.136 41.616h2.816V48.4H3.136v-6.784m4.992-25.088c-.768.192-1.6.32-2.368.32a8.977 8.977 0 0 1-2.624-.384v2.304c.832-.256 1.728-.448 2.624-.448.768 0 1.6.192 2.368.384v-2.176zm36.288-.192h7.296v2.88h-7.296v-2.88m0 40.96h7.296v2.88h-7.296v-2.88m14.592-40.96v2.88h2.112v2.176H64v-5.056zm2.112 11.776H64v6.784h-2.88v-6.784m0 13.504H64V48.4h-2.88v-6.784m0 15.68h-2.112v2.88H64V55.12h-2.88zm-40.704-38.08l12.992 9.536c.256.192.576.32.832.32.448 0 .896-.192 1.152-.576.448-.64.32-1.536-.32-2.048l-12.288-9.024 12.288-9.088c.64-.448.768-1.408.32-1.984-.448-.64-1.344-.832-1.984-.32l-12.992 9.6L11.84 9.36c.064-.448.128-.896.128-1.344A6.009 6.009 0 0 0 5.952 2C2.688 2 0 4.688 0 8.016s2.688 6.08 5.952 6.08c1.856 0 3.456-.832 4.544-2.176l7.488 5.504-7.488 5.504c-1.088-1.28-2.688-2.112-4.544-2.112-3.264 0-5.952 2.752-5.952 6.08s2.688 6.08 5.952 6.08c3.328 0 6.016-2.752 6.016-6.08 0-.448-.064-.896-.128-1.344l8.576-6.336zm-14.464-8c-1.728 0-3.136-1.408-3.136-3.2 0-1.728 1.408-3.2 3.136-3.2 1.792 0 3.2 1.472 3.2 3.2 0 1.792-1.408 3.2-3.2 3.2zm0 18.88c-1.728 0-3.136-1.472-3.136-3.2 0-1.792 1.408-3.2 3.136-3.2 1.792 0 3.2 1.472 3.2 3.2s-1.408 3.2-3.2 3.2z"/></svg>