<?xml version="1.0" encoding="UTF-8" standalone="no"?>
<!DOCTYPE svg  PUBLIC '-//W3C//DTD SVG 1.1 Basic//EN'  'http://www.w3.org/Graphics/SVG/1.1/DTD/svg11-basic.dtd'>
<svg xmlns="http://www.w3.org/2000/svg" xml:space="preserve" baseProfile="basic" version="1.1" xmlns:xlink="http://www.w3.org/1999/xlink" viewBox="0 0 64 64">
  <path fill="#67b65c" transform="matrix(.064 0 0 .064 7 0)" d="m674 804l-21-33c-65 44-141 67-219 67-218 0-396-179-396-400 0-106 42-206 116-282 75-76 175-117 280-117v-39c-116 0-225 45-307 128s-127 193-127 310c0 233 179 423 405 438v84h-183v40h406v-40h-184v-83c82-2 162-27 230-73zm-572-366c0 185 149 336 332 336s332-151 332-336-149-335-332-335-332 150-332 335zm625 0c0 164-131 297-293 297s-293-133-293-297c0-79 30-153 86-209 55-56 129-87 207-87 162 0 293 133 293 296zm-154 166c6 0 11-2 14-5 2-1 10-4 15-6 12-4 19-7 25-11l1 1c4 1 8 2 13 2h2c8 0 14-3 19-9 1-1 2-3 3-5 1 3 2 6 4 8 22-36 35-78 38-123-11 7-22 15-27 21-2 2-4 3-5 3-11 8-11 18-11 28v11 18c-1-3-2-7-3-11-4-23-17-38-25-46-1-5-2-11-2-13 4-5 8-12 4-21-3-8-10-13-18-13-5 0-10 3-13 6-2 1-3 3-4 4-43 44-55 65-49 84 3 7 6 16 6 21-11 7-17 19-15 31 3 14 15 25 28 25zm29-102l4 4s14 11 17 28c1 3 2 6 2 9-9-1-16 3-20 7-1 0-4 1-6 3 1-14-4-29-7-37 1-2 4-7 10-14zm-172-9c2-22 5-53-23-56-10-3-41-34-49-47-12-17-40-29-68-29-3 0-12-10-12-57 0-27-17-48-35-63-1 1-2 1-2 2-9 9-17 18-24 27 12 9 22 21 22 34 0 64 17 96 51 96 18 0 33 8 35 12 1 0 36 49 68 61 0 5-1 12-1 17-1 15-3 33 1 48h-2c-6-2-11-4-15-5-6-2-17-10-26-17-20-15-42-32-66-25-5 2-11 4-17 7-23 9-38 14-51 5-14-11-35-21-53-29 2 16 5 33 10 48 8 4 15 8 20 12 31 23 66 9 88 0 5-2 10-4 15-5s23 12 31 19c12 9 25 19 38 23 4 1 8 2 13 4 17 5 31 10 42 10 8 0 15-3 20-10 7-10 5-22-6-36-6-8-5-31-4-46zm97 155c16-8-4-9-11-40-7-32-19-48-44-42-14 3 15 27 17 49 3 23 22 41 38 33zm54-11c-3 0-6 1-10 1-8 1-16 6-18 15-2 8 2 17 9 22 0 0 2 1 6 4 19-11 36-23 52-38h-2c-15-8-27-6-37-4z"/>
</svg>
