<?xml version="1.0" encoding="UTF-8" standalone="no"?>
<!DOCTYPE svg  PUBLIC '-//W3C//DTD SVG 1.1 Basic//EN'  'http://www.w3.org/Graphics/SVG/1.1/DTD/svg11-basic.dtd'>
<svg xmlns="http://www.w3.org/2000/svg" xml:space="preserve" baseProfile="basic" version="1.1" xmlns:xlink="http://www.w3.org/1999/xlink" viewBox="0 0 64 64">
  <path fill="#67b65c" transform="scale(.064)" d="m840 340c9-5 18-12 25-19 25-25 39-58 39-94 0-35-14-68-39-93s-58-39-93-39-69 14-94 39c-7 7-14 16-19 25l-159-159-196 195 26 10c11 5 22 12 31 21 18 18 28 42 28 67 0 26-10 50-28 68s-42 28-68 28c-25 0-49-10-67-28-9-9-16-20-21-31l-10-26-195 196 500 500 500-500-160-160zm-789 160l133-133c4 7 10 14 16 20 25 25 58 39 93 39 36 0 69-14 94-39s39-58 39-94c0-35-14-68-39-93-6-6-13-12-20-16l133-133 172 173 10-28c4-14 12-26 22-36 18-18 42-28 68-28 25 0 49 10 67 28s28 42 28 67c0 26-10 50-28 68-10 10-22 18-36 22l-28 10 173 173-448 448-449-448z"/>
</svg>
