<svg xmlns="http://www.w3.org/2000/svg" viewBox="0 0 64 64"><defs><style>.cls-1,.cls-2{fill-rule:evenodd}.cls-1{filter:url(#filter)}.cls-2{fill:#69ba5e}</style><filter id="filter" x="0" y="0" width="64" height="64" filterUnits="userSpaceOnUse"><feFlood result="flood" flood-color="#67b65c"/><feComposite result="composite" operator="in" in2="SourceGraphic"/><feBlend result="blend" in2="SourceGraphic"/></filter></defs><path class="cls-1" d="M0 64h64V0H0v3h61v58H3V3H0v61z"/><path id="JS" class="cls-2" d="M49.938 39c2.791-.059 5.318.858 5.862 2.914l-2.875 1.7c-.728-2.121-5.011-1.925-4.058.66.423 1.148 2.081 1.5 3.213 1.979 2.5 1.052 5.934 3.029 4.678 7.092-1.686 5.454-10.434 4.075-12.625 0 .075-.22-.92.366 2.987-1.759a3.822 3.822 0 0 0 2.818 2.144c1.575.325 3.7-.384 3.325-2.089-.3-1.395-2.1-1.8-3.325-2.309-2.483-1.036-5.946-3.139-4.509-7.147a4.808 4.808 0 0 1 1.184-1.814A5.225 5.225 0 0 1 49.938 39zm-11.554.22h3.664c.024 2.78.017 8.29.01 12.08a7 7 0 0 1-.8 3.483C38.874 58.6 32.664 57.028 31 53.628c1.014-.568 1.973-1.081 2.987-1.649a3.033 3.033 0 0 0 1.3 1.539c.934.435 2.452.4 2.931-.77.426-1.043.169-2.962.169-4.288v-9.237z"/></svg>