<svg xmlns="http://www.w3.org/2000/svg" baseProfile="basic" viewBox="0 0 64 64"><path fill="#67b65c" d="M60.6 62.656L35.768 24.448c3.52-1.536 6.016-5.056 6.016-9.088 0-5.056-3.84-9.28-8.832-9.856V0h-2.368v5.504c-4.992.576-8.832 4.8-8.832 9.856a9.81 9.81 0 0 0 6.08 9.088L18.04 39.552c-4.608-2.88-8.32-7.04-10.816-12.096l-2.176 1.088c2.688 5.44 6.72 9.92 11.648 12.992L3 62.656 4.984 64l13.824-21.184c4.544 2.368 9.664 3.712 15.04 3.712 4.096 0 8.064-.832 11.84-2.304l12.864 19.712 2.048-1.28zM24.184 15.36c0-4.16 3.392-7.552 7.616-7.552 4.16 0 7.552 3.392 7.552 7.552s-3.392 7.488-7.552 7.488c-4.224 0-7.616-3.328-7.616-7.488zm9.664 28.736c-4.864 0-9.6-1.216-13.76-3.328l1.92-2.88 7.36-11.264h-.064l.96-1.472c.512.064.96.128 1.536.128.512 0 1.024-.064 1.536-.128l11.008 17.024c-3.328 1.28-6.848 1.92-10.496 1.92z"/></svg>