<svg xmlns="http://www.w3.org/2000/svg" viewBox="0 0 900.14 900.141"><path d="M450.07 0C201.5 0 0 201.5 0 450.07s201.5 450.07 450.07 450.07 450.07-201.5 450.07-450.07S698.64 0 450.07 0zM33.11 450.07c0-48.351 8.128-95.443 24.204-140.32l43.292 30.07v337.86c-13.458-20.62-25.057-42.439-34.743-65.328-21.72-51.38-32.748-105.98-32.748-162.28zm711.8 294.84c-38.301 38.299-82.896 68.369-132.54 89.37-51.384 21.736-105.98 32.753-162.29 32.753-56.299 0-110.9-11.017-162.28-32.753-49.656-21.001-94.244-51.071-132.55-89.37a422.376 422.376 0 0 1-33.757-38.094h230.43l90.743-65.694v-357.57l-90.743-67.571h-247c14.725-21.659 31.534-41.959 50.313-60.747 38.308-38.309 82.896-68.378 132.55-89.373 51.382-21.736 105.98-32.753 162.28-32.753 56.309 0 110.91 11.017 162.29 32.753 49.646 20.995 94.242 51.064 132.54 89.373 18.788 18.787 35.586 39.088 50.312 60.747h-65.882l-14.8 32.679-43.988-32.679h-102.34l-90.088 67.571v357.56l89.665 65.694h210.89c-10.39 13.3-21.66 26.01-33.74 38.1zM192.6 328.33h82.409c23.058 0 41.743 18.684 41.743 41.742v184.78c0 23.05-18.685 41.741-41.743 41.741h-49.44v-244.37l-32.97-23.89zm617.93 331.51V532.43H693.91v64.163h-50.376c-22.037 0-39.896-17.857-39.896-39.893V352.27l-32.989-23.94h123.26v70.037h106.9l21.265-136.87a416.083 416.083 0 0 1 12.2 26.275c21.736 51.383 32.756 105.98 32.756 162.29 0 56.301-11.02 110.9-32.756 162.28a413.147 413.147 0 0 1-23.73 47.49z" fill="#867b6e"/></svg>