<svg xmlns="http://www.w3.org/2000/svg" viewBox="0 0 294 55"><g fill="#867b6e"><path d="M292.707 44.57c0 1.973-1.45 3.395-3.297 3.395-1.87 0-3.319-1.422-3.319-3.395 0-1.925 1.448-3.37 3.32-3.37 1.85 0 3.3 1.445 3.3 3.37m-7.39 0c0 2.346 1.883 4.046 4.1 4.046 2.2 0 4.077-1.7 4.077-4.046 0-2.317-1.878-4.021-4.078-4.021-2.22 0-4.1 1.703-4.1 4.021m3.24-1.726h.961c.821 0 1.037.246 1.037.691 0 .51-.282.762-1.154.762h-.844v-1.453zm0 2.045h.806l1.236 2.026h.784l-1.328-2.055c.695-.083 1.217-.443 1.217-1.277 0-.917-.54-1.331-1.649-1.331h-1.78v4.663h.715v-2.026zM284.247 5.986l-10.636 19.268-10.276-19.268h-9.632c1.786 3.259 14.398 26.971 14.398 26.971v15.634h10.34c.006-2.124.003-15.567.003-15.567S291.54 9.268 293.395 5.987h-9.14zM241.367 26.05c7.561-.695 9.201-4.393 9.201-9.724 0-4.69-1.99-7.079-4.166-8.422-1.824-1.146-3.982-1.919-8.51-1.919h-19.926v42.604h20.186c6.205 0 8.787-1.214 9.985-2.039 2.052-1.371 4.716-4.415 4.716-9.258-.01-5.726-2-11.462-11.49-11.242m-5.1 16.351h-8.687V12.094h9.464c3.205 0 5.203 2.544 5.203 6.02 0 5.348-2.589 5.484-9.957 5.75v4.934c6.584-.025 11.866-.417 11.866 6.404.01 3.425-2.19 7.199-7.88 7.199M194.927 5.986h-9.61V48.59h27.36v-7.087h-17.75zM168.607 33.677c0 7.561-2.643 9.287-10.052 9.287-7.419 0-10.052-1.727-10.052-9.287V20.914c0-7.37 2.633-8.963 10.052-8.963 7.41 0 10.052 1.593 10.052 8.963v12.763zm4.25-25.316c-2.93-2.045-7.877-3.119-14.3-3.119-6.278 0-10.836.874-14.335 3.135-3.647 2.36-5.373 6.307-5.373 12.479v13.42c0 6.191 1.792 10.374 5.332 12.457 2.873 1.994 7.548 2.942 14.376 2.942 6.727 0 11.537-.974 14.284-2.892 3.56-2.213 5.414-6.519 5.414-12.508v-13.42c.01-5.878-1.81-10.082-5.39-12.494M123.177 32.672c0 7.459-3.982 9.344-7.323 9.344h-11.8V12.244h11.794c3.341 0 7.323 1.882 7.323 8.818v11.61zm-7.4-26.686H94.438V48.59h22.831c11.256 0 15.441-4.587 15.441-16.942v-9.363c0-11.73-4.74-16.299-16.93-16.299M.003 54.66H78.76V.017H.003V54.66zm18.27-7.081h-8.98V7.092h8.98c9.317 0 17.11 9.251 17.11 20.162 0 11.246-7.792 20.325-17.11 20.325m51.216 0h-9.006c-9.327 0-17.104-9.078-17.104-20.324 0-10.911 7.776-20.162 17.104-20.162h9.006v40.486z"/></g></svg>