<svg xmlns="http://www.w3.org/2000/svg" viewBox="0 0 1250 1271"><defs><style>.cls-1{fill:#867b6e;fill-rule:evenodd}</style></defs><path id="Color_Fill_1" d="M772 1c16.946-1.213 26.641 2.277 35.471 10.593 19 17.889 36.75 36.622 51.53 51.407l190 190c10.56 10.557 30.68 29.038 47.6 46.606a46.807 46.807 0 0 1 11.4 46.39c-1 3.312-2.49 7.66-6.02 11.384-22.03 23.231-64.54 64.174-80.98 80.616l-230 230-347-346 313-314zm4 243c-35.557 6.624-56.3 17.112-72 54-23.623 55.491 27 123.82 83 116 111.06-15.5 106.62-171.78-11-170zm-345 90l347 346c-111.99 112.32-225.01 224.68-337 337-20.913 9.82-38.81 6.66-49.523-3.27-15.04-13.91-30.27-29.49-45.48-44.7-64.66-64.66-128.34-129.34-193-194-28.708-30.139-74.766-58.014-65-92a36.937 36.937 0 0 1 9.563-15.7c24.607-24.37 69.437-68.3 84.437-83.3zM285 598l-28 6c-21.289 8.789-39.6 27.288-48 49-22.785 58.912 29.074 127.08 93 115 100.12-18.91 94.26-169.19-17-170zm256 17l-27 6c-22.369 8.838-40.481 28.316-49 51-22.079 58.79 31.745 123.99 93 113 101.27-18.16 95.33-169.97-17-170zm151 426c41.894 1.02 44.97 55.38 8 63-30.087 6.2-48.083-28.59-32-50 5.35-7.1 11.17-9.2 24-13zm394 1c31.88-.74 40.37 22.92 34 45-5.24 18.17-20.86 35.11-39 38-2.73-3.64-4.65-4.56-6-10 5.1-3.61 9-7.17 12-13-8.03-3.23-15.46-4.86-20-9-12.34-11.27-11.02-27.26-1-39 4.2-5 8.9-8.9 20-12zM3 1058c31.972-.4 34.4 0 75 0 46.236 0 71.315 6.37 91 23.15 14.433 12.3 27.224 26.37 34 48.85 3.819 12.66 4.257 24.67 4 36-1.1 48.46-34.806 83.52-73 95-17.271 5.19-40.653 4-63 4q-34-.495-68-1c-1-.67-2-1.33-3-2v-201zm285 53c110.32-2.43 115.18 140.35 21 158-54.782 10.27-105.94-45.7-90-99 11.17-37.3 43.93-55.5 69-59zm701 0c111.03-2.44 115.62 140.14 21 157-54.994 9.8-103.67-44.18-89-97 10.5-37.8 42.08-56.4 68-60zm-501 1c29.78-.91 45.459 4.95 54 25l4-3c8.529-18.22 51.891-30.65 76-17 8.273 4.68 15.053 14.06 18 24 4.312 14.54 2 97.51 2 120 0 2.04-1.06 3-3 4h-48c-2.6 0-5.062-.93-6-3 .212-29.55 4.312-68.12-2-94q-4-2.505-8-5c-13.568-4.08-22.531 3.85-30 9 .236 18.81-.453 64.67-.453 85.47 0 3.21.734 5.36-2.547 7.53-12.648.22-31.7 0-45 0-7.72 0-5.772-2-8-2 0-21.18-.656-57.85-.656-81.11 0-19.82-12.064-29.39-39.344-9.89v88c0 3.5-2.111 4.61-4 5-12.442.26-36.188.69-47 0a5.889 5.889 0 0 1-5-3c-.189-23.81-.061-100.59-.061-133.26a26.968 26.968 0 0 1 3.06-12.7q25.5.495 51 1l2 14c23.18-17.7 30.73-17.9 39-19zm352 0c25.186-.51 41.923 4.11 51 14 14.105 15.38 12 43.09 12 81v53c0 1.99-2.187 3.52-3 5-13.906.28-36.344 0-49 0-1.958 0-3.613-2.18-5-3 .59-20.71-.139-51.25-.139-73.58 0-20.05-8.044-27.84-20.195-27.16-16.768.95-14.386 3.27-24.666 10.74.247 20.35 0 68.1 0 88 0 2.15-2.233 3.58-3 5q-25.5-.495-51-1c-1-.67-2-1.33-3-2-.2-23.81 0-109.35 0-138 0-3.56.815-8 3-8q26 .495 52 1c1 4.67 1 9.33 2 14 10.82-12.8 26.56-16.1 39-19zm323 0c31.59-.89 65.23 2.82 79 20a14.064 14.064 0 0 1-1.14 4.97 320.96 320.96 0 0 1-17.9 29c-12.41-3.58-21.45-11.74-34-13a71.934 71.934 0 0 0-23 1c-1 1.33-2 2.67-3 4 .67 2-1.87 1.92 2 6 20.99 4.17 50.88 4.66 67 18 13.15 10.88 23.77 27.77 13 56-7.25 19-26.58 26.98-48.44 30.12a135.36 135.36 0 0 1-91.6-19.1c.25-1.56.2-4.26 1-6 5.6-12.19 15.52-27.76 22-33 15.15 6.76 55.7 31.38 73 10-9.31-14.33-60.79-14.02-77-26-8.73-6.45-12.36-15.05-15-28-4.52-22.16 5.53-31.53 16.64-41.06 10.5-8.9 22.7-10.5 37.4-12.9zm-1101 2v97c16.715.42 38.769 2.07 51-3 22.876-9.49 41.041-49.83 21-77-13.28-18-39.669-17.8-72-17zm605 2c17.332.33 32.668-.33 50 0 2.369 1.34 4 3.18 4 5v139a5.619 5.619 0 0 1-3 5q-25.5-.495-51-1c-1-.67-2-1.33-3-2v-143zm-376 47c-7.659 2.83-14.007 6.2-18 13-11.139 18.95 5.98 45.25 29 40 30.51-7 29.79-57.2-11-53zm701 0c-9.7 4.08-17.068 8.53-20 18-5.879 18.99 10.827 40.14 32 35 11.53-2.8 19.38-11.29 21-21 2.7-16-9.4-34.8-33-32z" class="cls-1" data-name="Color Fill 1"/></svg>