<svg xmlns="http://www.w3.org/2000/svg" viewBox="0 0 5680 640"><g fill="#867b6e"><path d="M0 320V-1l258 3 257 3 46 27c57 34 78 65 86 127 7 57-11 98-61 137l-34 27 32 21c45 31 68 81 63 138-5 60-25 90-84 125l-48 28-257 3-258 3V320zm386 96c24-18 14-22-73-31-62-6-63-6-63 20 0 24 2 25 58 25 35 0 66-6 78-14zm-5-167c37-20 4-39-67-39-62 0-64 1-64 25s3 25 56 25c30 0 64-5 75-11z"/><path d="M874 630c-50-16-125-71-161-118-117-155-60-393 115-479C878 8 896 5 980 5s101 3 146 27c70 37 151 128 167 186 12 44 12 41 17-84l5-129 225-3c266-3 294 0 353 39 57 37 82 92 72 159-5 36-16 54-51 87-38 37-41 43-24 48 32 10 68 63 75 110 11 67-20 124-88 161l-52 29-249 3c-200 3-250 1-257-10-5-7-9-69-9-138l-1-125-19 61c-24 75-78 139-151 178-44 25-66 29-143 32-50 2-105-1-122-6zm146-220c16-16 20-33 20-83 0-73-18-107-57-107-47 0-63 25-63 102 0 74 19 108 60 108 11 0 29-9 40-20zm674 14c23-9 19-31-6-38-13-3-44-6-70-6-45 0-48 2-48 25 0 24 3 25 54 25 30 0 61-3 70-6zm14-191c-3-15-16-19-71-21-62-3-67-1-67 18 0 18 6 20 71 20 62 0 70-2 67-17zM2350 351c0-159 3-303 6-320l7-32 201 3c192 3 203 4 256 29 66 31 131 94 162 157 19 39 23 63 23 137 0 78-4 97-27 140-42 79-115 138-201 161-35 9-112 14-239 14h-188V351zm387 57c6-5 14-35 18-67 11-97-17-131-107-131h-38v104c0 101 1 105 23 109 29 5 89-3 104-15zM3150 514V388l-105-189C2987 95 2940 8 2940 5s65-5 144-5h143l35 65 34 64 28-64 28-65h124c101 0 124 3 124 14 0 8-43 95-95 193l-95 179v111c0 61-3 118-6 127-5 13-26 16-130 16h-124V514zM3627 633c-9-8-9-580-1-610 6-22 10-23 130-23h124l2 208 3 207 168 3 167 2v220h-293c-162 0-297-3-300-7zM4240 627c0-7 33-91 73-187s97-235 126-307l53-133h118c82 0 120 4 127 12 6 7 24 47 41 88s71 170 120 285c49 116 92 221 96 233l7 22h-278l-18-40-18-40h-207l-16 40-16 40h-104c-77 0-104-3-104-13zm380-250c0-2-7-25-16-52l-17-48-18 49c-11 27-19 50-19 52 0 1 16 2 35 2s35-1 35-3zM5015 458c-3-101-5-244-3-318l3-135 123-3 122-3 100 153c56 83 102 153 104 155s3-65 2-149l-1-153 108-3 107-3v641h-142c-79 0-148-4-154-8s-41-52-77-107l-67-100v92c0 50-3 98-6 107-5 13-24 16-109 16h-103l-7-182z"/></g></svg>