<svg xmlns="http://www.w3.org/2000/svg" viewBox="0 0 1000 1000"><path fill="#867b6e" clip-rule="evenodd" d="M500.01 1C224.85 1 1 224.86 1 500.01c0 275.16 223.85 499.01 499.01 499.01s499.01-223.85 499.01-499.01C999.01 224.86 775.16 1 500.01 1zm0 933.39c-239.52 0-434.37-194.86-434.37-434.38S260.5 65.63 500.01 65.63s434.38 194.86 434.38 434.38c-.01 239.52-194.87 434.38-434.38 434.38zm169.53-579.93h3.938v-19.076h7.098v-3.368h-18.117v3.368h7.082v19.08zm17.32-17.34h.072l6.225 17.342h3.207l6.223-17.342h.088v17.342h3.699v-22.443h-5.436l-6.016 17.554h-.104l-6.162-17.554h-5.525v22.443h3.729v-17.34zM573.53 332H328.04l-37.247 59.858h245.2l37.54-59.86zm50.17.57L473.62 571.53H307.16l38.405-59.909h99.771l38.112-59.88h-230.65l-38.104 59.88h54.641l-75.812 119.61h316.39l116.86-184.29 42.609 64.684h-38.42l-36.385 59.909h113.77l39.506 59.702h72.576l-196.74-298.66z" fill-rule="evenodd"/></svg>