<svg xmlns="http://www.w3.org/2000/svg" version="1" viewBox="0 0 10020 8130"><g fill="#867b6d"><path d="M0 8001c0-94 3-130 12-133 7-3 423-67 924-144l910-138-105-46c-266-115-399-252-417-430-15-149 64-301 198-386 248-157 927-183 1783-69 99 13 1640 180 3425 370s3255 348 3268 351l22 4v750H0v-129z"/><path d="M5 7712c-3-3-5-1739-5-3859V0h893l-6 178c-3 97-38 1358-78 2801-49 1777-69 2628-63 2639 15 22 58 32 97 21l33-9 533-2802C1703 1286 1945 19 1948 12c3-10 607-12 2990-10l2986 3 138 570c75 313 134 573 130 577s-157-54-341-128l-333-135-111 24-111 23 3 177c2 147 0 178-12 183-8 3-331-122-718-277-819-328-782-317-1131-326-230-6-336 2-507 39-171 36-355 112-481 198-122 83-352 349-490 568-28 45-59 82-67 82s-137-60-287-134c-352-175-476-216-652-216-146 0-381 70-527 157-112 66-273 227-360 359-73 111-170 306-211 427-32 94-32 99-3 92 12-2 140-23 285-46 227-36 262-44 262-59 0-10 18-53 40-97 102-205 295-306 525-274 91 13 129 31 155 74s25 91-4 152c-16 33-239 297-660 779l-636 730v93c0 51 2 93 4 93 4 0 1720-375 1789-391l47-11v-190c0-176-1-189-17-184-88 27-745 181-748 176-3-4 144-189 325-411 349-427 378-470 420-619 31-108 37-266 15-365-9-43-26-98-36-123-11-26-16-49-11-54s65 18 136 52c116 54 128 62 123 83-3 12-17 66-31 119-38 145-49 254-43 413 16 408 207 664 591 790 117 38 279 74 347 76 25 1 236-41 484-97 418-94 443-101 496-136 87-58 206-165 283-253 317-365 440-822 331-1232-43-164-102-270-207-379-33-34-56-64-52-66 8-4 1180 485 1212 505 9 6 12 122 12 524 0 408 3 514 13 510 6-2 56-12 109-22l97-17 3-267c3-230 5-270 20-298 37-66 88-80 130-36 41 44 48 90 48 341 0 185 3 232 13 232 14 0 114-16 155-25l22-5v-346c0-266 3-346 13-349 6-3 104 30 217 73l204 78 99 408c65 266 96 411 90 417-7 7-87-24-232-87l-222-97-3202 733c-1761 403-3208 735-3214 738-9 3-13 30-13 88v84l46 28c82 49 80 38 31 133-52 103-71 185-65 277 6 87 42 166 98 221 70 68 81 68 355 21 178-31 243-45 253-58 24-31 53-93 47-102-5-8-151-100-160-100-2 0-13 16-26 36-33 54-102 94-161 94-108 0-178-82-178-209 0-93 102-208 193-218 47-6 107 18 141 55l18 21 94-47 94-46-30-31c-17-17-28-34-25-37s32 2 63 11l57 17 3 272c1 150 6 272 10 272s136-22 294-50 289-50 292-50 6-34 6-75-2-75-5-75c-2 0-68 14-147 30-78 17-148 28-155 25-10-3-13-19-11-52l3-48 135-33c74-17 145-34 158-37 21-5 22-10 22-95 0-69-3-90-13-90-8 0-76 13-152 29-77 17-143 28-147 25-12-8-9-102 4-110 6-4 77-24 157-44l146-36 3-95c1-52 4-99 7-106 3-9 22-5 67 13 35 15 69 31 76 36 9 8 12 93 12 360v350l23-5c12-3 66-13 120-22l97-17v-203c0-111 3-204 6-208 4-3 89 72 189 167l183 173 111-20 111-20v-413c0-227 4-415 8-418s46 3 93 12l84 17 3 93c1 50 5 92 7 92s43-9 90-20c48-11 91-18 96-15 5 4 9 128 9 291 0 220 3 284 13 284 6 0 60-7 119-17l108-17 2-300 3-301 40-12c22-7 66-19 98-28l57-16v-114c0-63 4-116 9-119s35 5 67 18l59 24 5 319c5 332 8 349 51 390 51 46 78 45 364-7 293-54 328-66 366-134 24-41 24-43 27-406 1-201 4-371 7-378 3-9 31 1 95 33l90 45v370c0 204 3 370 8 370 4 0 80-14 170-31l162-31v-114c0-62 3-115 8-117 4-3 77 35 162 84l155 88 185-34c102-19 187-35 189-35 3 0-65-52-150-116-85-63-158-119-162-123-5-5 7-30 27-55 40-53 76-157 76-220 0-83-40-159-106-203-55-35-1-31 141 13l150 46 127 115 128 115v194c0 107 2 194 4 194s46-8 97-19c52-10 111-22 132-25l37-7v-395l201-298c110-163 207-300 215-303 16-6 589 183 602 200 15 18 265 1178 255 1187-4 4-203-51-440-123l-433-131-3187 535-3188 534-3 82-3 81 86 52 85 51v510c0 400 3 509 13 509 6 0 102-9 212-20s206-20 213-20c9 0 12-30 12-114 0-75 4-117 11-122 6-4 177-21 380-37l369-31v-356h-22c-13 1-180 16-373 34-192 18-353 31-357 29-5-2-8-60-8-129 0-120 1-125 23-133 12-5 166-24 342-41s339-33 362-36l43-6 2-182c3-154 5-181 18-180 33 4 279 78 329 100l53 24-38 52c-183 252-232 367-222 519 12 160 140 316 343 416l70 34 819-100c631-77 824-104 845-117 54-36 229-221 259-275 48-84 67-182 53-265-32-180-124-316-312-457-115-86-275-157-412-182-20-4-39-11-42-15-11-18 29-29 188-51 166-23 169-23 200-5 113 67 492 274 712 390 143 76 266 143 273 150 13 13-52 80-563 579-80 79-87 88-60 83 17-3 185-26 375-52l345-48 179-140c98-78 183-140 188-138 5 1 106 49 225 107s226 105 237 105c12 0 177-25 368-56l347-57-371-231c-204-127-373-236-375-241-3-9 946-904 968-913 10-4 908 305 933 322 14 9 47 112 131 417 147 532 142 517 165 529 47 25 112 2 124-44 5-19-497-5165-519-5323l-6-43h1181v7151l-47-6c-27-4-129-16-228-28l-180-22-5-540c-6-623 0-588-98-633-137-63-300-7-318 110-4 21-11 41-16 44s-241-78-524-181l-515-186-357 41c-3429 393-5662 655-5989 705-126 18-191 42-285 104-143 94-239 203-280 318-29 82-35 211-13 293 25 97 89 211 162 290 63 68 64 70 41 79-18 7-330 47-423 54-20 2-20-6-25-553-5-545-5-556-27-595-70-130-227-164-337-73-22 18-42 49-55 84-20 53-21 73-21 618 0 439-3 566-12 573-7 6-71 18-143 27s-172 23-222 30c-51 7-95 11-98 8zm919-1676c32-18 56-43 76-79 30-53 46-104 36-114-6-6-489-102-515-103-11 0-13 13-8 65 7 71 35 146 70 183 76 81 244 105 341 48zm8480-260c105-32 162-104 172-218 3-35 1-69-4-77-9-12-51-7-268 33-142 26-260 49-262 51s8 30 23 63c31 70 85 126 140 146 52 19 139 20 199 2zM6763 2585c43-8 81-15 83-15s5-123 6-272l3-273 103-24 102-25v-233l-92 19c-51 10-98 16-105 14-9-4-13-32-13-96v-91l-37 7c-21 3-65 12-98 18l-60 12-3 487c-2 459-1 487 15 487 10 0 53-7 96-15z"/><path d="M6650 6805c-3080-305-3275-325-3275-345 0-12 170-33 1020-122 561-59 1601-170 2310-248l1290-142 560 182c308 100 563 185 568 189 11 11 4 724-8 726-5 2-1115-107-2465-240zM4025 5730c-142-23-254-80-310-159-25-36-30-52-29-99 0-68 19-106 81-173 96-103 272-187 467-224 101-19 318-20 406-1 220 47 337 190 271 331-61 132-257 254-490 306-100 22-310 32-396 19zM6380 4669c-129-83-264-168-299-190-35-23-59-45-55-49 10-9 781 153 795 167 5 5-39 56-99 115l-107 107-235-150zM3656 3916c-114-118-207-218-206-223 1-12 14-9 230 55l195 57 3 154c1 85-1 158-6 163s-96-81-216-206zM5399 3961l-29-29v-296c0-162 4-297 8-300 5-3 39 6 76 20 118 43 106 7 106 313v269l-31 26c-43 36-91 35-130-3zM6404 3507c-3-8-4-49-2-93l3-79 56-3c47-2 59 1 82 22 15 14 27 36 27 50 0 36-44 82-97 100-57 19-62 20-69 3zM7328 3093c-58-65-103-122-98-127 10-10 265 33 285 48 12 9 8 26-23 100-20 49-42 91-47 93-6 2-58-50-117-114zM4765 2509c-173-25-354-195-394-370-16-66-13-203 5-273 9-33 36-101 62-150 100-194 262-352 467-454 142-70 172-77 346-77h155l76 37c201 100 301 287 285 533-8 116-27 191-77 290-90 180-281 345-495 430-103 41-283 55-430 34zM8175 1679c-369-158-525-178-620-79-15 16-32 27-37 24-4-3-8-154-8-335 0-269 3-331 14-335 16-6 645 252 667 275 21 20 144 490 133 501-5 5-69-16-149-51z"/></g></svg>