<svg xmlns="http://www.w3.org/2000/svg" viewBox="0 0 283 131" xmlns:bx="https://boxy-svg.com"><path fill="#867b6e" d="M235.69 7.85c-15.52 0-26.25 6.157-33.51 14.744-1.23-2.57-2.17-3.7-3.48-5.18-5.94-6.72-15.51-9.86-28.33-9.86-12.54 0-22.98 3.917-30.23 10.08-3.77-6.12-12.75-10.183-23.58-10.183-14.15 0-29.55 2.01-38.705 16.744-.212-5.31-.7-8.11-3.683-11.274-3.623-3.83-9.488-4.84-15.202-4.84-10.415 0-18.247 4.547-23.884 13.814C26.91 34.955 7.08 77.945 7.533 98.761c.28 13.449 9.307 23.139 25.453 23.519 12.62.3 22.512-3.08 28.808-9.42 5.646 6.12 14.266 9.73 24.576 9.73 11.48 0 23.04-3.45 29.87-10.98 5.75 7.05 14.79 11.16 26.42 11.11 15.22-.1 28.57-7.28 37.3-18.34 4.78 13.03 16.92 18.21 30.19 18.21 29.06 0 41.82-19.98 52.46-51.575 2.39-7.13 5.59-19 6.12-28.98.88-16.61-6.15-34.185-33.04-34.185zm39.32 45.444c-1.35 10.78-8.64 30.766-12.51 38.746-10.4 21.42-24.29 37.88-51.03 37.88-14.29 0-26.05-4.57-32.93-13.32-10.06 8.82-22.52 13.44-35.94 13.44-10.34 0-19.47-2.99-26.43-8.51-7.7 5.42-18.06 8.44-29.57 8.44-9.596 0-18.234-2.63-25-7.5-7.478 4.95-17.28 7.42-28.79 7.15C13.66 129.17.44 117.02.06 99.39c-.505-23.416 19.225-66.296 28.527-81.146C35.539 6.814 46.165.672 59.172.672 73.296.672 78.42 4.709 80.93 9.84 91.83.577 106.28.05 116.56.05c11.36 0 18.48 3.01 24.54 7.84 8.38-5.02 17.97-7.624 29.41-7.624 14.62 0 25.47 3.398 33.05 10.885C212.39 3.795 223.46.447 235.84.447c16.38 0 27.15 5.91 33.48 14.707 8.91 12.42 7.33 24.93 5.69 38.14M116.57 9.532c-14.12 0-28.35 1.906-36.95 15.754l-3.547 5.72-.285-6.72c-.21-5.21-.695-7.37-3.114-9.94-2.67-2.82-7.146-4.19-13.7-4.19-9.627 0-16.86 4.19-22.126 12.83C28.74 35.926 9.166 78.482 9.602 98.712c.28 13.118 9.042 21.158 23.438 21.498 11.864.27 21.296-2.77 27.28-8.81l1.532-1.55 1.467 1.6c5.385 5.85 13.57 9.06 23.05 9.06 12.07 0 22.401-3.76 28.331-10.3l1.62-1.79 1.53 1.88c5.54 6.82 14.13 10.45 24.81 10.35 13.92-.1 26.92-6.47 35.67-17.56l2.29-2.9 1.29 3.48c5.37 14.65 20 16.84 28.24 16.84 27.98 0 40.06-19.19 50.49-50.164 2.59-7.68 5.52-19.19 6.02-28.43.37-6.96-.57-16.72-7.16-23.66-5.24-5.533-13.25-8.336-23.8-8.336-13.34 0-24.09 4.718-31.94 14.026l-2.08 2.45-1.38-2.9c-1.12-2.35-1.93-3.32-3.15-4.7-5.37-6.09-14.39-9.17-26.78-9.17-11.35 0-21.62 3.407-28.89 9.59l-1.83 1.56-1.27-2.05c-3.44-5.587-12-9.193-21.81-9.193zm.48 6.76c7.55 0 16.25 3.224 16.25 10.354 0 9.88-8.37 13.65-16.67 14.13-3.55.2-9 .4-12.26.17 0 0-2.77 4.22-5.71 11.71 15.38-2.16 21.9 1.33 19.3 10.22-3.51 12.01-13.92 12.8-26.66 10.52-1 2.7-2.88 8.326-4.4 14.306 4.93-1.23 8.63-2.1 14.97-1.94 7.22.18 11.84 3.18 11.84 9.15 0 14.478-16 18.728-27.1 18.728-12.2 0-22.904-6.94-22.904-20.268 0-15.636 8.47-39.326 16.414-55.106 9.77-19.39 19.75-21.973 36.93-21.973zm53.75.404c14.5 0 25.93 5.21 24.25 18.8-1.22 9.97-6.21 15.82-15.27 16.53-2.54.2-12.91-.1-9.47-9.88 1.2-3.43 1.7-6.12-3.4-6.12-4.17 0-6.88 2.63-8.91 5.48-4.45 6.25-14.11 31.33-15.61 41.616-1.02 7.06 2.02 8.49 5.35 8.49 5.34 0 11.33-5.65 13.37-14.966 0 0-10.17-.25-7.36-9.27 2.71-8.75 7.89-10.64 16.45-10.99 16.88-.69 15.21 11.77 13.86 18.41-4.38 21.576-19.74 38.914-41.47 38.914-14.87 0-24.1-8.24-24.1-23.398 0-10.8 5.36-27.766 9.61-37.686 9.04-21.13 18.53-35.93 42.7-35.93zm66 .13c28.74.34 23.61 25.91 21.37 37.03-2.55 12.72-8.3 27.766-14.54 38.986-10.18 18.298-22.54 20.858-33.33 20.728-10.78-.13-22.96-4.11-23.04-20.758-.1-11.95 5.08-28.826 9.47-39.876 7.62-20.06 15.42-36.4 40.07-36.11zm-177.66.41c7.214 0 9.008 3.7 8.9 8.14-.28 11.84-19.428 47.84-25.707 61.906 15.038-2.61 18.82 2.83 18.34 7.85-1.41 15.078-15.24 18.438-27.247 18.168-8.707-.21-16.535-4.2-16.754-14.298-.38-17.69 17.658-58.596 26.153-72.146 3.916-6.45 8.693-9.62 16.314-9.62zm174.66 19.21c-2.47 0-4.63.44-6.56 3.42-4.35 5.65-17.06 40.366-16.83 47.296.1 2.48 1.45 4.66 4.52 4.66 3.51 0 5.46-2.42 7.2-5.36 3.99-6.77 15.24-37.456 15.55-45.136.1-2.23-.28-4.88-3.88-4.88zm39.76-29.604V4.806h1.38c1.02 0 1.55.354 1.55 1.01 0 .525-.33 1.025-1.37 1.025h-1.56zm4.98 4.25l-.87-1.5c-.75-1.32-.96-1.517-1.59-1.75v-.03c1.26-.147 2.01-.966 2.01-2.088 0-1.18-.75-2.078-2.35-2.078h-3.71v7.452h1.53V8.045h.28c.65 0 .92.07 1.22.37.3.303.75.932 1.02 1.467l.6 1.216h1.86zm-3.67-9.538c3.2 0 5.81 2.587 5.81 5.788 0 3.182-2.61 5.787-5.81 5.787-3.19 0-5.76-2.605-5.76-5.787 0-3.2 2.57-5.788 5.76-5.788zm0-1.423a7.188 7.188 0 0 0-7.19 7.21 7.171 7.171 0 0 0 7.19 7.185c4 0 7.21-3.2 7.21-7.185 0-3.994-3.22-7.21-7.21-7.21" bx:origin="0.5 0.5"/></svg>