<svg xmlns="http://www.w3.org/2000/svg" viewBox="0 0 512 134"><path d="M21.083 38.124c1.551 2.395 2.235 4.53 3.101 9.036 6.065-5.92 13.544-9.036 21.707-9.036 7.372 0 13.423 2.395 18.104 7.281 1.262 1.225 2.478 2.805 3.527 4.356 8.147-8.345 15.444-11.637 25.218-11.637 6.962 0 13.56 2.082 17.59 5.548 5.03 4.348 6.63 9.576 6.63 21.746v63.322H94.337V69.955c0-10.656-1.262-12.716-7.327-12.716-4.348 0-10.458 2.965-15.475 7.487v64.014H49.463V70.79c0-11.111-1.61-13.719-8.086-13.719-4.302 0-10.261 2.228-15.277 6.773v64.896H3.329V66.625c0-12.86-.882-18.415-3.329-22.785l21.083-5.716zm137.24 26.069c-1.6 4.713-2.45 10.968-2.45 19.846 0 10.237 1.05 17.931 2.95 22.431 2.1 4.88 7.34 7.31 11.82 7.31 10.1 0 14.42-9.04 14.42-30.083 0-12.01-1.57-19.853-4.69-23.865-2.23-2.934-5.86-4.682-10.06-4.682-5.58 0-10.11 3.465-11.99 9.043zm41.91-12.859c7.11 8.345 10.29 18.081 10.29 32.515 0 15.307-3.51 25.761-11.19 34.441-6.75 7.65-15.64 12.36-29.35 12.36-24.22 0-40.01-18.09-40.01-46.087 0-28.017 15.96-46.637 40.01-46.637 12.69 0 22.6 4.364 30.25 13.408zm85.26-11.659V55.68l-39.34 56.88h40.87l-5.58 16.18h-65.54V114.3l41.88-58.268h-38.39V39.675h66.1zm36.68-2.098v91.163h-23.31v-87.5l23.31-3.663zm2.73-22.422c0 8.013-6.37 14.411-14.42 14.411-7.8 0-14.21-6.398-14.21-14.411 0-7.995 6.62-14.448 14.6-14.448 7.82 0 14.03 6.453 14.03 14.448zm39.71 8.013v69.391c0 15.331.18 17.391 1.58 19.821.88 1.58 2.77 2.43 4.71 2.43.84 0 1.34 0 2.6-.32l3.98 13.9c-3.98 1.56-8.86 2.43-13.9 2.43-9.95 0-17.94-4.68-20.71-12.15-1.75-4.53-2.13-7.32-2.13-20.015V32.18c0-11.644-.3-18.758-1.17-26.791L363.413 0c.83 4.865 1.2 10.61 1.2 23.168zm48.34 0v69.391c0 15.331.2 17.391 1.63 19.821.81 1.58 2.7 2.43 4.65 2.43.88 0 1.41 0 2.64-.32l3.97 13.9c-3.97 1.56-8.85 2.43-13.91 2.43-9.93 0-17.94-4.68-20.72-12.15-1.78-4.53-2.07-7.32-2.07-20.015V32.18c0-11.644-.35-18.758-1.24-26.791L411.703 0c.96 4.865 1.25 10.61 1.25 23.168zm66.78 66.609c-16.12 0-21.77 2.934-21.77 13.593 0 6.93 4.41 11.62 10.32 11.62 4.33 0 8.71-2.26 12.16-6.08l.38-19.133h-1.09zm-30.21-46.789c8.67-3.664 16.12-5.214 24.32-5.214 14.99 0 25.24 5.549 28.75 15.474 1.15 3.65 1.69 6.431 1.58 16.006l-.56 29.902v1.584c0 9.56 1.58 13.22 8.39 18.25l-12.38 14.29c-5.44-2.28-10.29-6.29-12.55-10.8-1.72 1.76-3.65 3.46-5.41 4.69-4.32 3.13-10.63 4.88-17.93 4.88-19.83 0-30.61-10.11-30.61-27.82 0-20.905 14.47-30.658 42.8-30.658 1.71 0 3.32 0 5.25.198v-3.632c0-9.934-1.93-13.24-10.5-13.24-7.39 0-16.16 3.632-25.71 10.084l-9.93-16.704c4.73-2.966 8.21-4.69 14.49-7.29z" fill="#867b6e"/></svg>