<svg width="1500" xmlns="http://www.w3.org/2000/svg" viewBox="0 0 15000 12540" height="1254"><defs><style>.cls-1{fill:#867b6e;stroke:#000;stroke-width:1px}</style></defs><ellipse fill-opacity=".25" rx="6114.5" ry="6120.7" cy="6313.5" cx="6953.1" class="cls-1"/><g fill="#867b6d"><path d="M6450 12485c-355-28-727-91-1079-181-924-239-1796-701-2513-1332-59-51-110-94-113-94-23 0-891 775-907 811-10 21-110 103-117 95-5-5-4-49 1-97l9-89 82-77c208-196 377-350 675-616 78-70 142-130 142-134s-16-23-36-42c-82-78-344-362-437-474-577-693-1007-1524-1227-2366l-33-127-36 15c-80 33-435 218-564 293-75 44-142 80-148 80-7 0-38-10-70-21-39-14-59-27-59-38 1-21 283-183 635-366 220-114 207-105 202-135-2-14-16-89-31-168-125-669-138-1359-40-2042 173-1205 687-2313 1499-3230 142-159 504-513 660-644C4417 275 6333-206 8225 181c1573 321 2994 1282 3903 2639 57 85 108 156 112 158 14 5 201-112 511-319 764-510 1354-1004 1825-1529 120-134 316-371 356-430 13-20 19-22 29-13 43 42-226 636-466 1028-102 167-160 251-384 550-335 450-766 905-1321 1395-58 51-111 98-119 105-11 11-2 40 52 176 251 630 392 1250 437 1914 13 195 13 652 0 847-98 1460-705 2833-1714 3878-646 668-1352 1148-2182 1480-598 240-1225 383-1886 430-196 13-723 11-928-5zm1000-235c1280-89 2491-599 3460-1457 172-152 533-521 664-678 795-954 1255-2080 1352-3310 21-264 15-965-9-1195-62-579-212-1179-407-1635l-20-47-58 48c-31 27-88 76-127 109-173 149-774 620-1005 788-36 25-121 87-189 137l-124 90h220c201 0 221 2 237 19 9 10 57 119 105 242 49 123 156 391 236 594 81 204 221 556 311 784l164 413 131 137c71 75 128 143 127 151-3 13-93 15-736 18-664 2-733 1-739-14-4-11 31-53 121-143 69-69 126-131 126-136 0-6-19-58-42-117l-41-108h-785l-21 70c-12 38-29 98-38 133l-17 64 88 107c49 61 86 115 84 124-3 15-26 17-212 20-176 2-207 5-202 17 24 63 82 270 116 410 58 244 57 243 87 435 23 151 26 208 27 420 1 266-13 375-68 538-93 272-280 451-547 524-75 20-106 23-279 22-259 0-433-32-740-135-281-94-389-144-364-169 8-8 42 2 125 34 470 181 895 237 1190 155 541-150 710-789 465-1764-41-162-89-323-132-442l-16-43h-109c-85 0-111-3-115-14-3-9 25-43 75-91l80-77-21-56c-53-143-296-667-305-658-2 2 3 34 12 70 45 198-20 401-180 561-168 169-394 270-690 310-213 29-480 4-716-66-54-16-103-29-109-29-12 0-188 128-232 168-51 47-65 18-70-140-1-58-5-85-12-80-178 105-1141 739-1141 750 0 16 144 137 331 277 304 228 360 278 404 363 28 53 21 98-21 146-84 96-193 84-355-37-126-96-315-304-472-525-46-63-78-99-85-95-53 30-714 489-917 636-41 29-162 116-269 193-106 76-356 261-555 409-444 333-469 352-746 569-433 338-832 666-827 680 4 14 152 145 277 246 559 451 1142 772 1790 987 158 51 375 115 475 138 374 87 672 134 970 154 177 12 847 12 1015 1zm-4444-1841c195-183 555-506 644-578 25-20 88-72 140-117 302-257 739-597 1185-921 192-139 314-225 620-438 39-27 167-114 285-193 118-80 217-146 219-148s-7-16-20-32c-295-362-567-716-714-929-63-92-73-102-101-103-31 0-32 2-53 78-12 42-28 98-36 124l-14 48 89 110c50 60 90 115 90 121 0 7-7 21-17 31-15 17-40 18-383 18h-367l-23-25-23-25 136-137 136-138 90-315c50-173 91-317 91-321 0-6-91 16-757 183l-293 73v400l126 126c90 90 125 132 121 143-6 15-57 16-523 14l-517-3-16-30c-9-16-63-107-119-202l-103-171-62 18c-34 9-89 25-122 35-33 9-87 25-120 35s-106 33-163 50l-103 31 28 34c15 19 54 66 87 104 48 59 56 74 46 86-11 13-70 15-411 15-235 0-400-4-404-9-6-11-73 12-355 124l-205 82 2 39c4 50 78 322 144 524 268 817 736 1579 1360 2214 92 93 171 167 177 165 5-2 99-88 208-190zm3577-2716c169-111 307-205 307-208s-221-5-491-5h-491l19 24c137 179 328 404 337 399 6-4 149-98 319-210zm-5306-307c220-115 621-309 641-309 9 0 12-177 12-851v-851l-115-119c-96-101-112-122-104-138 9-17 32-18 516-16l507 3 29 40c23 32 288 473 368 612 18 32 54 92 76 128 7 11 42 70 78 130 84 140 84 140 121 200 16 27 33 57 37 65s19 33 33 55 30 52 37 68 17 25 25 22 20-5 28-5c12 0 14-79 14-527v-528l-112-112c-96-96-111-116-102-131 10-16 41-17 389-17s379 1 389 17c9 15-6 35-102 131l-112 112v463c0 254 1 462 3 462 1 0 176-58 389-128l387-128-17-29c-10-17-32-55-49-85s-47-84-68-120c-20-36-81-150-134-255-314-611-510-1201-587-1765-25-176-25-587-1-720 71-390 237-649 502-783 105-53 302-97 433-97 170 0 457 59 677 138 933 338 1987 1167 2944 2317 46 55 88 102 93 103 5 2 14-1 21-6 7-6 66-31 132-55 118-44 581-228 620-247 11-5 121-52 245-103 289-121 564-242 810-355 107-49 218-99 245-112 129-58 719-348 880-433 194-102 203-106 437-239l158-89-14-34c-29-68-244-371-395-555-276-337-627-686-951-946-256-205-471-352-743-508-749-429-1532-676-2412-758-189-18-981-18-1165 0-793 76-1478 272-2155 617-816 416-1553 1044-2117 1805-667 898-1049 1949-1129 3103-13 196-7 885 10 1047 32 302 81 620 97 620 2 0 93-47 201-104zm4690-98c62-62 113-119 113-128 0-8-16-59-37-112l-38-98h-259c-205 0-256 3-249 13 126 164 346 437 352 437 3 0 56-51 118-112zm1446-147c92-60 164-112 159-115s-13-49-17-102c-9-124-1-134 63-73 26 25 61 56 79 68l32 21 83-53c46-30 161-102 257-162 161-100 173-109 150-118-82-33-304-145-360-183-174-117-277-275-307-467-13-86-20-106-32-102-21 6-524 145-704 194-82 22-151 42-153 45-2 2 52 145 120 317 69 173 162 409 207 524 82 208 83 211 148 277 62 63 68 67 87 53 11-8 96-63 188-124zm2640-156c52-182 224-776 351-1217 47-163 86-302 86-309 0-8-5-7-17 3-24 20-222 154-645 437-192 128-348 237-348 242 0 6 26 56 58 112 157 273 321 597 418 823 21 51 42 87 45 80 4-6 27-83 52-171zm-1488 150c141-30 245-107 245-182 0-71-48-124-159-177-41-20-77-40-80-45s-87 44-187 108c-99 64-222 142-272 175-51 32-91 60-89 62 9 10 241 56 317 63 127 12 149 12 225-4zm-5995-342c74-30 137-57 139-58 2-2-42-80-97-172s-132-222-171-288c-38-66-88-149-110-185l-41-65v883l73-30c39-16 133-55 207-85zm8470-261c0-4-27-78-61-163-33-84-87-221-119-304-94-241-108-271-114-255-6 18-107 364-146 505-16 55-35 123-44 150-9 28-16 56-16 63 0 9 57 12 250 12 138 0 250-4 250-8zm-5210-9c0-6-69-193-74-200-1 0-84 20-185 45l-184 47-13 45c-8 25-14 51-14 58 0 9 54 12 235 12 129 0 235-3 235-7zm3569-284c-15-30-24-38-32-30s-3 19 18 41c16 16 30 30 32 30s-6-19-18-41zm-165-239c5 0 18 8 29 17 25 23-148-240-308-470-47-66-55-73-105-88-45-13-58-14-75-4-11 7-126 48-255 90-129 43-237 79-238 81-8 6 20 73 38 89 23 21 224 109 530 232 129 52 244 100 255 107 17 12 26 9 70-20 27-19 54-34 59-34zm-4073-118c6-6 112-362 142-475l10-39-114-114c-96-96-112-117-103-131 6-10 25-21 43-25 17-5 272-7 567-6l536 3 18 22c9 12 46 93 80 180 35 87 66 162 71 167 9 10-2 13 519-164 539-184 784-270 1218-431 118-44 219-76 225-73 10 6-36-51-54-66-3-3-29-32-56-65-183-221-619-674-893-928-823-764-1535-1205-2180-1352-444-102-810-11-1006 248-240 317-270 853-88 1557 106 408 278 856 525 1369 73 152 200 391 221 417 6 9 51-2 161-38 84-27 155-53 158-56zm4741-331c142-100 165-116 193-136 17-11 57-40 90-64 33-25 88-65 122-90l63-46-42-42c-35-36-39-44-28-58 15-18 169-22 187-4 8 8 45-15 134-82 377-281 1127-888 1259-1017 13-13 12-13-9-2-13 6-60 36-105 64-108 70-326 200-516 309-143 81-727 378-865 439-33 15-132 59-220 98-169 76-389 167-647 270l-158 62 7 219c7 261 5 269-63 213-47-38-186-125-192-119-2 2 21 38 50 82 30 43 82 124 118 179l63 101 251-168c138-92 277-186 308-208z"/><path d="M4647 11043c-3-5-9-36-12-70-6-53-12-66-44-96-29-29-47-37-96-44-51-7-60-11-60-28s11-22 63-32c85-17 128-59 138-135 12-93 47-99 60-11 5 32 17 57 40 83 19 21 34 42 34 47 0 6 28 13 62 17 66 7 84 16 75 39-3 9-28 17-67 21-55 6-67 12-97 44-27 29-37 50-46 102-9 46-17 66-29 68-9 2-18-1-21-5zM9800 10733c-70-26-66-115 6-137 27-8 84 37 84 66 0 19-51 79-67 77-4 0-15-3-23-6zM5160 10240c-29-29-26-74 6-99 35-27 55-26 88 4 31 29 33 53 5 89-25 32-70 35-99 6zM4462 10107c-28-30-28-68 1-95 29-28 57-28 91-1 33 26 34 68 3 97-30 28-68 28-95-1zM6542 10103c-36-31-37-60-3-93 16-17 37-30 46-30s30 13 46 30c23 23 29 35 24 52-11 36-36 58-65 58-15 0-37-8-48-17zM11077 9793c-2-4-8-35-12-68-6-51-13-65-43-95-29-28-48-37-96-45-51-8-61-13-61-30s10-21 62-29c48-7 64-13 68-27 4-11 19-26 34-34 29-14 41-46 41-107 0-30 24-48 41-31 5 5 14 34 19 65 16 84 56 122 142 135 66 9 67 9 88-19 32-44 90-37 116 14 16 30 13 39-19 76-26 29-62 28-92-2-23-23-25-23-91-10-60 11-74 18-106 53-27 29-38 50-39 73-2 50-13 83-31 86-9 2-18-1-21-5zM7746 9679c-50-39-24-119 39-119 24 0 39 7 54 26 28 36 26 50-8 85-35 34-49 36-85 8zM5066 9649c-14-17-26-39-26-49s12-32 26-49c19-23 34-31 59-31s40 8 59 31c14 17 26 39 26 49s-12 32-26 49c-19 23-34 31-59 31s-40-8-59-31zM9539 9361c-16-16-29-37-29-46 0-26 46-65 78-65 61 0 85 80 36 119-36 28-50 26-85-8zM10906 9311c-26-28-18-79 16-104 27-20 29-20 63-4 44 21 55 58 28 95-26 35-81 42-107 13zM11469 8781c-16-16-29-36-29-45 0-28 44-68 75-68s75 40 75 68c0 21-54 74-75 74-9 0-30-13-46-29zM10011 8774c-58-48-27-134 48-134s109 85 55 135c-34 32-65 32-103-1zM11784 8682c-52-41-51-90 2-131 34-27 69-22 102 15 32 36 29 77-9 108-35 30-65 33-95 8zM9539 8672c-46-38-16-122 45-122 40 0 66 27 66 70 0 63-61 91-111 52zM11642 8428c-5-7-13-33-17-58-10-67-15-80-31-80-8 0-30-16-50-35-23-23-44-35-62-35-36 0-71-25-57-39 6-6 31-15 55-19 25-5 66-24 91-43 44-32 47-37 55-99 8-55 12-65 29-65s22 11 31 64c16 88 58 131 140 142 100 13 96 50-8 63-41 6-59 15-88 44-31 31-38 47-44 94-8 60-26 88-44 66zM10026 8349c-39-31-49-63-31-99 29-55 76-65 124-24 38 31 41 72 9 108-33 37-68 42-102 15zM10901 8304c-28-35-26-75 4-108 48-52 135-16 135 57 0 72-95 107-139 51zM10807 8000c-46-36-29-108 31-125 17-5 30 1 52 24 34 34 38 60 13 89-27 32-64 37-96 12zM3217 9640c-33-26-41-63-23-99 16-31 34-41 71-41 13 0 31 3 40 6 24 10 46 60 39 89-8 31-49 65-79 65-12 0-34-9-48-20zM2976 9429c-33-26-34-68-3-97 13-12 35-22 48-22 32 0 69 39 69 72 0 29-41 68-70 68-10 0-29-9-44-21zM4021 9374c-12-15-21-32-21-40 0-23 51-74 75-74s75 51 75 74c0 8-9 25-21 40-15 19-30 26-54 26s-39-7-54-26zM2403 9159c-24-9-53-46-53-69s52-70 77-70c21 0 73 51 73 72 0 18-39 65-58 70-10 3-27 2-39-3zM3074 9110c-28-11-54-48-54-78 0-13 14-37 30-54 26-25 36-29 62-24 47 9 68 33 68 77 0 29-6 43-31 63-33 28-42 30-75 16zM4710 8813c-32-12-60-47-60-77 0-38 44-86 79-86 34 0 81 47 81 81 0 48-59 96-100 82zM4666 7609c-33-26-34-68-3-97 13-12 35-22 48-22 32 0 69 39 69 72 0 29-41 68-70 68-10 0-29-9-44-21zM8165 2738c-30-16-55-50-55-75 0-35 47-83 82-83 33 0 88 47 88 75 0 32-30 73-61 84-18 6-32 11-33 11s-10-6-21-12zM5789 2271c-16-16-29-37-29-46 0-21 54-75 75-75s75 54 75 75-54 75-75 75c-9 0-30-13-46-29zM7241 2174c-27-35-26-59 4-89s54-31 89-4c33 26 34 68 3 97-32 30-71 28-96-4zM6012 2077c-30-32-28-71 4-96 35-27 59-26 89 4 31 30 32 65 2 93s-68 28-95-1zM5861 1974c-27-35-26-59 4-89s54-31 89-4c33 26 34 68 3 97-32 30-71 28-96-4zM6723 1910c-43-17-58-84-25-113 27-24 74-21 100 6 30 32 27 61-9 91-33 28-34 29-66 16zM5732 1893c-7-3-19-18-27-33-36-69 51-134 105-80 52 52-9 141-78 113zM8152 1528c-5-7-13-39-17-71-6-45-13-62-31-73-13-9-26-24-29-34-4-14-21-19-70-25-36-3-67-11-71-16-9-15 16-39 40-39 41 0 91-21 123-50 27-25 34-39 39-87 12-101 43-105 64-10 8 37 23 65 50 95 34 38 45 43 97 50 49 6 58 10 58 27s-11 22-64 31c-87 16-126 54-144 143-13 65-25 82-45 59zM7249 1485c-39-21-54-65-35-103 30-57 103-63 140-10 24 34 19 66-13 99-33 32-53 35-92 14zM6532 1403c-15-6-42-56-42-77 0-8 12-28 26-45 33-40 80-42 114-6 62 66-12 163-98 128zM6902 697c-12-13-22-33-22-46 0-28 42-71 70-71s70 43 70 73-39 67-71 67c-14 0-35-10-47-23zM5317 3393c-3-5-8-33-12-63-8-61-20-90-37-90-5 0-26-13-45-30-23-21-44-30-67-30-34 0-63-21-52-38 3-5 24-12 48-16 27-4 55-19 80-41 21-19 44-35 52-35 10 0 16-19 21-65 4-36 12-68 17-71 18-11 36 17 47 74 18 91 80 142 173 142 15 0 30 5 33 10 11 17-15 40-45 40-44 0-90 20-125 55-25 26-34 45-39 86-7 52-20 79-37 79-4 0-10-3-12-7zM4835 3355c-31-30-32-65-2-93s68-28 95 1c30 32 28 71-4 96-35 27-59 26-89-4zM4619 3091c-16-16-29-36-29-45 0-27 44-68 73-68 65 0 92 81 41 121-36 28-50 26-85-8z"/></g></svg>