<svg xmlns="http://www.w3.org/2000/svg" version="1" viewBox="0 0 12190 9080"><g fill="#867b6e"><path d="M333 9064c-119-21-214-81-273-173-56-89-60-131-60-674v-487l208 2 207 3 5 435c5 415 6 437 25 470 12 19 36 43 55 55 33 19 51 20 330 20s297-1 330-20c19-12 43-36 55-55 19-33 20-55 25-470l5-435 209-3c119-1 214 2 219 7s6 269 2 675l-8 666-631-1c-471-1-649-5-703-15zM1972 8408l3-673 640-3c402-1 665 1 707 8 108 16 176 47 233 104 66 66 85 124 85 255 0 147-22 203-101 261l-38 27 40 19c50 22 111 89 128 141 7 21 15 77 18 125 12 180-41 308-150 365-79 40-133 43-865 43h-702l2-672zm1225 331c37-14 43-25 43-84 0-101 8-99-447-103l-383-3v201h379c244 0 390-4 408-11zm-11-511c12-12 18-34 18-68 1-43-3-55-23-71-22-18-44-19-397-19h-374v181l380-3c342-3 381-5 396-20zM3922 8408l3-673h420l3 673 2 672h-430l2-672zM4830 9066c-64-18-83-30-129-82-50-57-62-93-68-209-4-73-2-93 10-103 11-9 64-12 198-10l183 3 7 34c4 18 13 37 21 42 18 12 735 11 777-1 45-13 51-23 51-92v-57l-477-3c-477-3-478-4-538-27-81-33-163-115-195-196-23-58-24-70-24-345l-1-285 658-3c713-2 743-1 824 52 95 60 132 132 135 262l3 89h-389l-8-32-9-33h-789v39c0 61 16 90 57 109 33 15 94 17 503 22 459 5 466 5 515 28 60 28 109 73 138 127 20 36 22 58 25 236 2 119-1 212-7 236-14 52-61 115-111 152-80 58-121 61-749 60-418-1-578-4-611-13zM6909 9076c-2-2-36-9-75-14-148-21-270-117-316-249-22-66-23-77-23-403 0-363 3-390 61-481 31-50 107-114 168-143 110-51 111-51 856-51h695l3 455c2 289-1 484-8 535-27 196-138 308-338 340-66 11-198 15-553 15-256 0-468-2-470-4zm805-366c22-5 51-17 65-28 52-38 56-57 59-329l4-253h-389c-383 0-389 0-433 23-33 16-51 34-68 67-22 43-23 53-20 235 4 236 14 262 113 286 44 10 623 10 669-1zM8552 8408l3-673h1400l3 169c2 116-1 173-9 182-9 12-94 14-485 14h-474v190l463 2 462 3 3 169c2 116-1 173-9 182-9 12-91 14-465 14h-454v420h-440l2-672zM10650 8590v-490h-274c-221 0-276-3-285-14-8-9-11-66-9-182l3-169h1560l3 169c2 116-1 173-9 182-9 11-64 14-285 14h-274v980h-430v-490zM11892 8104c-89-44-132-130-117-230 5-37 16-56 58-99 64-66 115-83 193-66 167 38 222 257 92 366-72 61-144 70-226 29zm178-60c42-36 60-74 60-129 0-82-47-139-124-150-28-5-54-2-77 8l-34 15 77 1c70 1 78 3 97 27 25 32 27 71 5 95-15 16-15 20 0 41 9 12 16 32 16 44 0 47-62 60-68 14-5-34-20-50-48-50-19 0-23 6-26 38-2 30-7 38-26 40-44 7-52-12-52-122 0-68 4-107 13-116 10-12 9-12-5-1-48 36-59 150-21 208 44 67 154 86 213 37zm-66-150c9-3 16-15 16-25 0-15-7-19-35-19-31 0-35 3-35 25 0 26 19 32 54 19zM5675 6933c-22-1-98-8-170-13-250-21-523-78-780-164-991-331-1806-1124-2161-2103-267-737-282-1524-43-2260 310-955 1030-1740 1961-2137 278-118 636-214 888-237 180-17 633-23 790-10 188 15 267 26 425 61 1260 278 2277 1262 2606 2520 183 700 137 1463-128 2135-184 466-449 864-814 1220-488 476-1053 778-1719 919-264 56-643 87-855 69zm475-358c1065-115 1983-742 2464-1685 170-333 266-646 322-1050 21-155 25-576 6-720-69-514-209-918-460-1324-148-240-412-544-632-728-471-396-1016-632-1660-720-148-20-604-17-760 5-721 103-1324 400-1820 897-472 471-771 1064-879 1740-53 336-37 806 39 1151 144 650 505 1256 999 1682 499 429 1075 679 1731 752 160 18 487 18 650 0z"/><path d="M5635 6094c-696-58-1233-353-1575-866-160-240-265-493-325-783-23-108-31-355-16-494 59-566 425-1088 946-1349 569-285 1243-230 1766 144 150 107 427 400 402 425-5 5-34-14-71-46-280-244-635-362-981-326-270 28-486 113-696 276-230 179-397 454-461 760-25 122-26 384-1 502 35 166 110 345 200 478 62 91 220 248 316 314 211 144 424 219 691 243 148 14 315-3 465-46 111-32 287-117 380-183 535-381 733-1135 494-1883-41-130-165-375-246-490-333-464-864-748-1484-790-359-25-705 46-1030 211-566 287-936 796-1056 1449-13 71-17 150-17 315-1 218 8 311 40 439 15 59 8 90-14 64-32-39-128-353-161-528-60-311-62-669-6-973 60-323 182-639 358-922 139-223 385-501 592-668 813-655 1931-771 2865-296 314 159 659 434 889 709 289 344 489 755 572 1173 44 223 61 551 40 769-68 696-398 1324-931 1770-361 303-821 507-1310 583-102 16-521 28-635 19z"/><path d="M5735 5042c-26-5-40-12-40-22 0-11 18-16 75-21 433-36 738-402 690-829-54-477-532-777-988-621-117 41-185 84-283 182-72 71-94 101-133 180-25 51-53 121-61 154-22 83-30 228-16 299 13 68 2 92-23 53-26-39-66-215-73-317-24-394 201-782 557-960 393-196 849-122 1162 191 344 343 396 874 125 1273-96 142-256 279-409 351-137 64-235 87-398 90-80 2-163 0-185-3z"/><path d="M5536 4795c-174-44-322-183-384-359-47-134-30-306 45-433 38-65 107-138 175-183 82-55 99-39 29 29-90 88-132 217-111 340 22 128 103 235 218 289 50 24 69 27 162 27 98 0 109-2 171-32 227-111 283-413 114-610-49-57-27-65 40-13 131 101 205 252 205 420 0 145-51 270-155 374-105 107-212 155-360 161-60 3-110 0-149-10z"/></g></svg>