<svg xmlns="http://www.w3.org/2000/svg" viewBox="9.917 9.704 945 501"><g fill="#867b6e"><path d="M533.2 25.862c-12.04-2.93-25.226-.637-24.908-.19-1.274-.447-3.758-1.339-5.096-1.084-.191.128-.382.191-.51.191.319.128.637.255.892.383-.892.318-1.21-.064-1.911-.255.446.637.382.51 0 1.146 0 .064.064.192.127.255 1.912.446 3.823 1.274 6.498.956v-.128c-.573-.637-1.911-.764-2.548-1.274h-.255v-.127c1.72.318 3.185 1.147 4.46 1.911.19-.127.382-.255.509-.382-.382.764-.956.955-.637 1.72-2.994-.51-5.096-1.53-6.18 1.656.256.319.574.573.893.828-.191.128-.446.191-.637.255l-.191.764c1.146 1.083 1.847 1.657 3.248 2.166.064.637.128 1.21.255 1.784.382.255.382.191.828.127.637.574.191 1.083.51 1.466.764.955 3.822 2.484 4.46 3.44.254.318.063.828.572 1.21 1.083.7 2.357 1.147 3.25 1.911.382.191.127.064 0 .446 2.165 1.02 5.478.892 7.325 1.975.319.318.128.127.128.7 1.783.51 3.694.956 5.542 1.466.127 0 .255-.064.446-.128.063-.446.063-.446-.128-.892 1.147-.7 1.402-1.847 2.166-2.739-.382-.7-.51-.764-.382-1.72 1.529-.19 2.038-1.083 3.312-1.401-.19-.701-.063-.828-.7-1.21.382-.255.318-.128.828 0 .127-.128.255-.255.446-.383-.446-.318-.828-.7-1.274-1.083h-.255v-.127c.764.19 1.465.318 2.293.19.191 0 .255-.063.319-.063-.128-.255-.382-.51-.574-.764.064-.064.128-.064.128-.128 1.083.637 1.72.701 3.312.701.064-.382.192-.764.255-1.083.255-.064.446-.064.701-.127-.255.382-.446.7-.7 1.019.063.127.127.255.127.319 3.248.7 5.414-.574 8.472-1.02v-.828c3.695-1.083 8.855 1.21 12.422.892 1.147-.064-13.059-9.11-27.838-12.74M465 32.487c1.72.255 4.013.446 5.86 1.338 1.912.828 2.358 2.102 4.46 2.421-.51.318-.7.127-1.338-.064.446.828.956 1.274 2.166 1.465-.255.064-.446.128-.573.255.573.51.892.828 1.592 1.21h.574c-.192-.573-.064-.445-.574-.636v-.128c4.014 1.21 7.645 4.077 12.168 4.778.19-.637-.064-.319.51-.382v-.128c-1.339-1.783-4.46-3.694-6.626-4.586 0-.255-.064-.319-.127-.574.828.51 1.783.956 2.611 1.402v-.51c2.421 1.465 5.288 3.122 7.772 4.587.191-.064.446-.064.637-.128h.255v-.127c-.828-.51-1.274-.446-1.911-1.338.446.128.764.255 1.147.382h.127c.064-.445-.064-.573-.382-1.019.064-.064.064-.19.127-.255.319.191.255.128.382.51.829-.064.574-.127 1.02-.637.19.51.255.51.637.828h.127c-.064-.191-.127-.382-.255-.51h.956v-.254c-.765-.574-1.465-1.083-2.548-1.402a.483.483 0 0 1-.128-.255c.255-.063.51-.063.765-.127v-.127c-.7-.574-3.122-2.549-4.842-2.294 0-.828-.382-1.847-1.401-2.102h1.147a.483.483 0 0 0 .127-.255c-.127-.255-.319-.318-.51-.573 1.784.127 3.313 1.593 4.905 1.656-.573 1.784 2.93 2.294 4.141 3.25.892-.128.892-.447 1.593-.447-.191-.064-.319-.255-.446-.318.19-.446.127-.255.446-.51.637.255 1.337.51 2.038.191v.573h.892a2.223 2.223 0 0 0-.382-.573c.446-.255.064-.127.573 0 .128-.064.255-.064.382-.127-.19-.255-.382-.51-.51-.765 1.211.319 1.72.255 2.74.064-.382-1.21-1.847-1.656-3.249-1.529-.191-.382.064-.191.382-.382-.446 0-.891 0-1.337-.064-.51-.19-.892-1.02-2.357-1.083.318-.255.063-.127.573-.255-.446-.446-1.72-1.083-2.612-1.083-.064-.063-.191-.127-.255-.254.191-.128.383-.191.574-.319-1.466-.255-1.784-.637-2.74-.127-.828-.701-.764-1.02-2.166-1.21.064-.128.192-.255.255-.383-1.083-.318-2.166-.573-3.249-.828v-.127c.319-.064.574-.064.829-.128.063-.51.063-.318-.128-.764 1.02.255 1.975.51 3.058.828a.497.497 0 0 1 .255-.255 3.48 3.48 0 0 0-2.421-1.02c0-.063.064-.254.127-.381.446.127.956.382 1.466.51 0-.128.063-.128.127-.128v-.446c-1.21-.892-1.465-.956-3.376-.828.446-.574.573-.382 1.337-.446v-.128c-1.337-1.082-3.376-.573-4.84-1.401 0 0-1.275-1.465-1.53-1.593-.955-.573-4.459-1.21-5.096-1.274.064-.19.191-.318.255-.446-1.338-.573-2.612-.955-4.014-1.656h-.318.318c.319.064.701.064 1.083.064v-.191c-.7-1.02-6.88 1.529-7.962 3.121-.446-.255 2.484 2.23 1.72 2.102-.128.128-.192.255-.383.383h-.254c.445.637 3.312.51 3.95.51.063.127.126.254.126.318-.445.255-.637-.191-1.274 0h-.318c.382.955 1.274.7 2.23.382.127.318.19.7.318 1.02-.637-.192-.956-.256-1.72-.256.255.956 1.911 1.147 3.058 1.21.064-.19.064-.318.127-.509-.446-.191-.892-.255-1.338-.318l.192-.765c.764.255 1.146.7 2.293.892.191.7.382 1.402.637 2.102-2.166.255-4.332.51-6.434.701-.064.127-.128.191-.191.255.446.446.955.892 1.401 1.274v.127c-1.529-.382-3.185-.063-4.523-.255-2.994-.51-5.287-2.102-8.217-.318.063.127.127.255.127.382.828 1.529 3.44.956 5.16 1.21m-93.835 294.818c1.657 2.676 3.122 6.434 5.224 8.6 4.46 4.523 11.658 6.944 14.46 12.804 1.338 1.338 2.676 2.612 4.014 3.95-.064.573-.127 1.274-.191 1.847.191 1.848 1.02 4.396.7 6.307-.127.892-.445 2.038-.318 2.93.128.7.255 1.274.382 1.847-.318 1.848-1.146 3.759-1.146 6.116-.574.191-.255.064-.956 0 0 .637-.064 1.338-.064 1.975h.637c-.19 1.21-.318 2.42-.51 3.63.192 1.211.32 2.422.447 3.696-.128.446-.892.637-1.02 1.337.064.446.192 1.02.255 1.466-.19 2.42-.7 4.586-1.401 6.051-.765 1.465 0 2.994-1.274 3.886.19 1.975.828 2.93.7 5.033-.51.127-.318.127-.891.127-.383 4.587 1.91 7.071.51 10.511.19.064.7 1.465.509 1.911-1.147 3.058-2.484 5.988-2.74 9.556-.127-.191-.254-.255-.445-.383v1.848l-1.147-.382a.137.137 0 0 0-.127.127c.255 2.484 1.465 5.224 2.484 7.39-.127 2.866-1.847 3.694.319 7.007v.573c-.191-.127-.446-.255-.637-.446-.446 1.338.254 2.74-.064 4.332.446.573.955.637 1.72.956.191 0 .318-.064.446-.128.255-1.465.127-3.185-.574-4.268a1.39 1.39 0 0 1 .255-.318c.319.127.637.318.892.446h.191c-.127-.637.255-.51-.318-.574.127-.19.19-.382.255-.573.254.255.445.573.764.828-.127.255-.319.382-.446.573.7.51 1.02 2.039.127 2.357.319.192.51.383.765.574-.382 2.293.064 3.95 0 6.434h-.255c-.191-.701-.764-2.803-.446-2.994-.51-.765-1.02-1.21-1.847-1.53-.51.638-.765 1.53-.892 2.485l1.147 1.147c-.064.637-.064 1.21-.128 1.911h-.955v.127c.127.255.254.574.382.829-.319.254-.7.51-1.02.828v.573c.32.191.574.319.892.51.192-.191.446-.319.574-.51.637.51 1.847.7 2.484 1.401-.19-.063-.382-.19-.51-.19.192.445.128.318.383.573l-.382 1.337c-.51-.318-.637-.445-1.402-.51v.128l.382.382c-.19.128-.446.255-.637.383.701 1.401.892 3.44 1.784 4.586l1.911.956c-.382-.128-.764-.191-1.083-.255v.127c.128.51.255 1.083.382 1.657.255.063.446.19.765.255.127-.383.318-.829.51-1.275.127.383.254.701.382 1.02h-.51c-.064.063-.127.063-.127.127.51.765.637 1.147.637 2.293a12.583 12.583 0 0 0 1.656-.51c.318.32.255.383.828.51-.127.192-.191.383-.255.574-.446-.128-.892-.255-1.401-.382-.064.063-.064.127-.128.254.51.892 1.21 1.402 2.039 1.911-.064-.19-.191-.382-.255-.51.828.574 1.529 1.211 2.293 1.912v.127c-.7-.318-1.401-.637-2.166-1.019.956 1.21 1.657 1.593 2.803 1.784-.127.446 0 .063-.19.51 1.082.955 5.478 3.885 6.688 3.63 0 .51.064.128-.127.51 1.274 1.274 5.478 2.803 7.453 3.313v-.128c-.319-.318-.573-.637-.892-1.02 1.402.574 2.357.128 3.313 1.02v-.573c.7.127 1.337.191 1.91.255h.128a.88.88 0 0 0 .191-.255c0-.128-.063-.255-.063-.446-3.632-.446-4.906-3.631-7.836-4.46l.382-.573c-.892-.891-1.975-.828-2.739-1.783-.127 0-.191-.064-.255-.128.128-.063.255-.19.446-.254.637.254 1.338.51 1.975.891v-.254c-1.083-1.338-2.803-2.294-2.994-4.587.064-.127.064-.191.127-.319l1.911-.382c.51-.382.319-1.21.255-2.166.892-.637 2.676-1.019 3.376-1.783.255-.319.255-1.21.128-2.103-2.23-1.465-5.542-1.91-4.778-5.16 1.02-.828 2.42-1.146 3.759-.637h.573c-.127-.51.064-.254-.446-.51.319-.573.446-.509 1.02-.7.063-.828-.192-1.593-.447-2.357.574-.828 1.02-1.21 2.421-1.21-.318-.637-1.147-.828-1.656-1.274-.064-.064-.128-.128-.255-.128l.956-.382c.7.446.955.7 1.337 1.465l1.147.191c.127-.19.255-.318.382-.446 0-.891-.064-1.21-.382-1.656-.127-.127-.191-.255-.319-.382-.51 0-1.019.064-1.465.127.191.191.446.383.637.51v.191c-.254-.127-.573-.191-.892-.318-.51-.319-.51-.638-1.401-.956-.446-.828-.446-2.42-.828-3.44 1.02-1.274 3.376 1.274 4.778 1.656 1.019-.063 2.165-.063 3.248-.19.255-.51.446-.956.701-1.466-.19.064-.382.191-.637.255a1.939 1.939 0 0 0-.51-.51c.701-1.02 1.593-2.038 1.083-3.376.192.127.383.191.574.255h.127c-.127-.255-.19-.51-.318-.765 1.974.765 10.702 2.039 13.059.637.573-.254 2.612-2.803 3.44-3.44v-1.91c-1.21-.447-1.72-.51-1.848-1.912.383-.318.701-.7 1.083-1.02-.573-2.42-2.994-2.675-4.14-4.586.19-.19.382-.446.573-.7.127 0 .255-.064.382-.128.382.574.765.765.956 1.53.892.19 1.72.381 2.675.572.765.574 1.657 2.166 2.676 2.357.828.192 1.465-.446 2.357 0 .637.319 1.083 1.083 2.166.956 2.739-.319 3.249-1.593 4.841-2.74 1.02-.382 1.911-.827 2.93-1.273.701-.892 1.402-1.848 2.166-2.74 1.784-.764 3.568-1.592 5.351-2.357 2.166-1.401 3.313-4.013 5.351-5.542 2.485-1.91 5.67-2.293 6.626-5.86a1.2 1.2 0 0 1-.51-.128c.318-1.274.446-3.058 1.147-4.969.637-1.529 10.192-6.37 12.677-5.606.573.383 1.082.829 1.656 1.275.063-.319.127-.637.255-1.02-.192-.063-.383-.063-.574-.127v-.128c1.274-.318 2.485-2.165 3.695-1.783.446-.382.446-.255 0-.7v-.383c2.548 0 7.453 1.02 9.874 2.166.255-.319.255-.319.7-.51-.127-2.166 2.421-1.338 4.078-2.038 1.019-.892 1.083-3.44 2.675-4.141 2.548-1.338 2.421-2.102 4.205-3.313.764-.51 1.592-.446 2.102-1.21 1.784-2.994.573-4.332 4.332-5.67.573-2.038 1.146-3.63 2.293-5.16a18.571 18.571 0 0 0 1.784-2.038c.637-1.784.254-3.313.955-4.969.765-1.784 2.294-2.866 2.485-5.16 1.656-.955 3.121-.637 4.714-1.72 2.357-2.038 4.65-4.077 7.007-6.115.828-.191 1.593-.382 2.484-.51 1.02-.892 2.103-1.656 3.122-2.484 3.758-2.421 6.816-4.587 8.345-9.365 0-.891.064-1.847.127-2.739.383-1.72 2.421-13.059 2.357-13.059-105.556-.191-183.847 1.083-183.847 1.083m4.141-198.626c1.02.764 3.886-.828 5.351-.828.574.764 1.911 4.013 2.676 4.204 1.146 2.612-2.039 3.886-1.72 5.861.063 0 .19.064.318.191.51-.573.446-.51.255-1.147.128-.063.191-.063.319-.127.254.7-.064.573.637.637-.51.382-.956.7-1.53 1.147-.254.51.128 1.91.32 3.121.19.064.445.128.636.191.128-.127.191-.318.255-.51a.483.483 0 0 1 .128.255c-.51.701-.51 1.02-.892 1.657.318.063.19 0 .51-.128.318.446.445.765.254 1.53.064 2.101 2.23 2.101 1.274 4.331.7 1.02 3.122.319 3.759.446-.064-1.72 2.102-3.504 2.866-5.096.956-2.166.064-5.097.064-7.645.255-.127.51-.19.828-.318a182.133 182.133 0 0 1-.892-5.797c.637-7.453 6.562-9.237 12.486-11.02 2.803-.893 1.784-3.25 6.88-2.23 1.338-2.485 5.67-1.975 8.154-2.612.064-.064.064-.191.127-.255-.51-.319-.382-.127-.637-.764v-.128c.637-.446 2.74-.892 3.504-.892.255-.318.51-.637.764-1.019-.51-.637-1.465-1.02-2.548-1.083v-.127a33.46 33.46 0 0 1 2.676.446v1.019c.064-.064.382-2.803.446-4.268-.255-.128-.51-.191-.828-.255-.446-.319-.064-.064-.128-.7 0-.574.956-1.912 1.402-2.549-.382-.318 0-2.548.063-3.185a23.272 23.272 0 0 1 1.912-1.72c-1.593 2.166-.765 2.23-1.275 4.778.446.127.829.254 1.21.382-.764.764-1.592 1.02-2.101 2.038 0 .064-.064.128-.128.255.255.255.191.191.7.319.765-1.72 4.014-2.803 5.416-5.097-.892-.891-.446-1.465-.765-2.675.637.573.892 1.02 1.848 1.338-.128.255-.319.446-.51.7v.128c2.102.255 5.033-2.485 5.988-4.013-.191-.446 0-.255-.446-.51a.483.483 0 0 0-.127-.255c2.484-.382 6.052.382 8.727.128-.255-.319-.446-.638-.7-.892-2.04.254-3.887-.51-5.925-.064 2.42-1.911 9.874.828 13.123-.446.318.828 1.146.764 2.739.828.127-.255.382-.51.573-.764a2.288 2.288 0 0 0-.446-.637c-.318.7-.063.764-.828.764-.318-.064-.7-.127-1.083-.19-.254-.765.128-1.976-1.337-2.167v-.255c.637-.127 1.337-.318 1.91-.446-.127-.254-.318-.637-.509-.891.892-1.083 2.867-1.784 3.695-2.549 2.166.383 3.567.319 5.733-.764.319.382.255.255.255.764 2.675-.19 5.224 0 8.026-.7-.127-.319-.254-.637-.382-.892.319 0 1.72.573 2.166.637 2.102.446 6.116 0 7.9-.573.127.063.19.127.254.318-.7.064-1.274.319-1.91.446a.483.483 0 0 0-.128.255c.7.127 1.465.318 2.166.446-2.612.382-5.288.828-7.9 1.274-.063.064-.063.19-.127.255.318-.064.637-.128.956-.255-.192.127-.383.19-.574.255-.637.764-.828.828-.828 2.23.255.063.573.063.828.063.51.7.191 1.147 1.274 1.21 1.911.128 3.695-1.146 5.797-1.274.255-.51.064-.7.701-.955.064.127.191.255.255.446.19-.191.382-.383.573-.51.128.892.637.892 1.338 1.147 1.147-1.274 8.536.318 10.702-.319h.255c-.382-.446-.765-.573-1.657-.637.383-.191.446-.127.701-.51 1.657.574 3.504.192 5.86.255v-.382c.065-.828-1.21-1.529-2.101-1.593v-.127c.382-.446.764-.828 1.083-1.274-.319-.446-.255-.191-.255-.828-.255-.064-.51-.128-.828-.191-1.338.637-4.523 1.465-4.587 3.376-.955.127-1.401.064-1.465-1.02-3.185.32-4.46-1.273-7.071-1.592-.191-.19-.382-.51-.573-.7h.573c0-.064.064-.192.127-.255-.828-.319-1.592-.637-2.484-.956-.446-.318-.828-1.592-1.147-2.166.191-.255.446-.446.637-.573-.382-.319-.764-.446-1.529-.446v-.255c1.466-.19 2.103-.955 3.504-1.529.064-.127.191-.318.255-.51v-.127c-1.402.382-2.612.191-4.65.128-.255-.956-1.02-1.338-2.103-1.53 0-.127-.063-.19-.127-.254 1.911.127 2.548 1.02 4.14 1.21 1.402-.19 2.867-.382 4.269-.573.063-.127.063-.255.063-.382.383-.319 0-.319-.127-.828.127.063.319.127.51.19v-.127c-3.377-4.523-15.162-2.994-20.258-2.038-2.102.382-3.44 2.293-6.243 2.293 1.21-1.21 8.409-3.886 10.639-4.586 0 0 4.523.318 4.905.254.382-.382.764-.828 1.21-1.337 1.847-.956 4.587-.574 7.071.063 3.122.956 6.18 1.21 9.3 2.294 1.976.7 7.9 3.121 9.938 2.803 1.593-.255 2.994-.701 4.46-1.338 3.248-1.402 9.937 2.102 12.23-.382.192-.51.128-.064-.127-.701.128.064.191.127.255.127.382-.7 0-2.866.446-3.63-.764-.256-1.593-.574-2.293-.829 0-.446 0-.064.127-.573-1.465-.128-1.529-.446-2.484-.383-.255-1.656-1.72-2.165-3.44-2.42v-.128a68.17 68.17 0 0 1 3.567.446c-.573-.892-2.102-1.019-2.293-1.975-1.147-.318-2.102-.063-3.058-.637-.51-.318-.382-.382-.382-.891-.574-.383-2.102-.255-2.612-.701-.573-.51-.7-1.02-1.656-1.402-.191-.573-.319-.254.127-.637-.064-.318-2.484-2.038-3.567-2.293.446-.318.318-.191.764-.191.064-.319.064-1.147.128-2.102-.319-.191-.637-.319-.956-.446-.127-.064.319-.765.319-1.593-1.275-.51-2.676-1.019-2.485-2.42-.255 0-.446-.064-.7-.064-.765-1.274-3.95-5.287-3.887-6.562-3.312.892-7.644 6.307-12.294 2.612-.7.064-1.21-1.146-2.676-1.337-.063-.383-.063-.765-.127-1.147-.319-.064-.573-.128-.892-.191.382-1.083.764-1.274.7-2.74.51-.19.956-.382 1.53-.637a12.782 12.782 0 0 0-.446-.637c-.383.192-.828.319-1.21.51-.892-1.02-2.931-1.465-4.46-1.911a.483.483 0 0 1-.127-.255v-.127c.255-.191.19-.128.637-.255v-.127c-1.083-.956-3.25-2.549-4.587-3.058-1.147.064-2.23.064-3.44.127-2.803-.955-5.542-2.102-8.409-2.038l-.828.828c-.063.191-.063.318-.127.51.255.318.191.318.637.51-.573.7-1.338 1.082-2.485 1.273 1.083 1.274.319 1.465.892 2.23-.446.446-3.758 1.72-4.969 1.783l-.382.765c1.657.51 3.185 1.847 3.25 4.013-1.402 3.122-4.715 3.695-8.728 4.332-1.402.064-2.803.064-4.205.127h-.318c.127.574 0 1.402.764 1.72-.7 1.402-2.23 3.058-1.146 4.65-.765.51-1.72 1.275-2.676 1.275 0 .382 0 .764-.064 1.146-.127.064-.318.064-.51.128-.063-.446-.318-.446-.509-1.02-1.146.128-1.72.574-2.484 1.02-.51-.191-.956-.446-1.402-.637-.382-2.166-1.783-3.44-2.675-5.415.637-.637 1.274-1.147 1.783-1.911 0-.446-.063-.764-.063-1.083.764-.828 1.592-1.21 2.23-2.23-2.867-.19-11.021-2.675-12.614-4.268-.637-.51-.764-1.783-1.592-2.42-1.274-.637-2.485-1.147-3.759-1.72-1.401 0-2.803 0-4.204.063h-.255c.955-1.083 1.592-2.548 2.42-3.758-.7-.319-1.72-.382-2.866-.319 0-.19 0-.446.064-.637 2.612-3.121 11.211-6.243 14.906-6.052-.19-.19-.382-.382-.51-.573 1.275.064 2.74.255 4.205.064.51-.7.382-.7-.064-1.274h-.382v-.128c2.166.637 9.364.51 12.613-1.146.51-.319.128-.128 0-.51 1.465-.255 2.867-.573 4.268-.892h.319v-.063c-.319-.255-.446-.319-.956-.446-.063-.128-.063-.191-.127-.255.955.064 1.911.127 2.803.255 0 .7 2.038 2.038 2.994 2.293.255-.255.064 0 .127-.382l.128-.128c-.319 0-.128-.063-.51.128-.191-.51-.318-.574-.955-1.02v-.127c.51.191.955.446 1.337.637 0-.382-.063-.764-.063-1.147.51.383 1.019.765 1.592 1.147 0-.127 0-.255.064-.382 2.293-.573 4.46-.51 6.243-1.083-.382-.319-.701-.7-1.083-1.083.127-.064-12.74-7.198-27.647-6.88-9.683.127-44.338 11.976-71.73 25.863-20.958 10.575-37.075 23.762-38.03 24.781-8.41 7.262-16.372 16.18-20.64 27.074-.51.51-.956 1.019-1.466 1.656-.318.7-2.739 6.944-2.739 7.262.382 0 .765.064 1.147.064-.255 1.847.892 1.91.318 4.14-.7 3.313-2.994 7.326-4.077 10.894-.19.764-.891 2.548-.7 3.503.19 1.274.637 2.867.19 4.46l-1.528 2.675c-.637 0-.828.191-1.529-.064-.064.064-.064.064-.127.064-.255 1.848.51 2.93.382 4.523.382 0 .255 0 .637-.255 1.083 2.93.51 6.052-1.593 8.027.637 2.675 2.039 4.204 1.53 8.345v.127c.127 0 .19.064.254.064 2.42-2.484 1.847-2.23 2.102-5.415-.127-.318-.19-.7-.255-.955a4.09 4.09 0 0 0-.637.828h-.127c-.319-2.102 1.784-7.39 2.23-9.62.254-1.464-.51-3.949-.128-5.669.892-4.077 1.338-12.804 4.714-15.352.128.318.319.573.51.955.127-.19.318-.318.446-.382.764 2.357-2.166 5.924-1.784 9.11-.764.51-1.083.891-1.593 1.72.128.063.255.19.383.318.255-.255.51-.573.764-.828 0 .828-.382 3.376.446 4.14.191.32 0 .128.382.064.064.064.128.191.255.255-.446.956-.892 1.402-.828 2.867.318.255.255.19.7.318-.127.51-.254 1.083-.382 1.657.192 0 .383-.064.637-.064 0 1.784-.7 2.357-1.592 3.567.191 1.657.955 2.039 1.656 3.313-.51.573-.446.892-.637 1.72 1.274 1.783 2.994 13.76.51 15.543-.574.892-.574.637-.255 1.53-.446.573-.7.509-1.338.764-1.91 4.65 2.23 5.86 2.294 9.619.318.127.573.382.955.573 0 0 15.161-.51 24.207-.7.319 0-.637-.32-1.083-.638-.382-.446-2.166-9.619-1.847-10.957.318-.445.573-.891.892-1.401-1.274-2.93.764-5.924 1.91-8.473a513.13 513.13 0 0 0 2.74-6.88c.892-1.019 2.612-.764 3.121-2.675.319-1.274-.254-2.484.383-4.14.573-1.466 2.23-1.912 2.166-3.823.891.064 2.357-.573 2.484-1.274.127-.318.319-.51.446-.764.064.51.064.318-.127.828.637-.319.445-.446.764-.382.191-.192.382-.446.573-.701a2.288 2.288 0 0 1-.446-.637c2.357.255 4.141-.7 6.18-1.848 1.274.319.764-.573.637-1.274.318-.382.7-.51 1.146-.764 0 .064.064.127.128.127l-.574.574.51.254c.573.51 2.74-.7 4.077-.573 1.21.128 3.95 1.21 4.905 1.72.127 0 .255 0 .382-.064v-.51c-.318 0-.573-.063-.892-.063-.063-.127-.127-.255-.127-.446.319-.127.7-.19 1.02-.318.127.51.955 1.274 1.337 1.783a.88.88 0 0 1-.255.191 1.333 1.333 0 0 1-.255.383c.446.382.892.7 1.274 1.019.701-.255 1.338-.51 1.912-.765.127.319.19.638.254.892 1.02-.19 1.083-.7 1.657-1.274.51.574 1.019 1.402 1.72 1.784l.382.191h.127l.574-.637c-.446-.446-.892-.828-1.338-1.338l-.255-.255c.382-.445.7-.573 1.465-.7.319-.51.191-.446.128-1.274-.319.19-.701.446-1.02.637h-.127c-.127-.128-.191-.191-.255-.383 2.102-1.337 4.523-1.019 6.689-.637.127-.318.318-.637.446-.955.127-.064.255-.128.382-.319v1.784c3.058.382 5.287-.828 7.58 1.593.51.51.51 1.592.765 1.847"/><path d="M468.2 25.414c-.637.191-1.21.382-1.784.637-.063.191-.127.446-.19.637v.127c.955.51 3.949 1.083 5.16.446.254-.255.636-.51.891-.764v-.446c-1.338-.319-2.293-.637-4.077-.637m7.198.446c.255.255 0 .064.383.255-.128-.064-.255-.191-.383-.255m-21.85 6.052c-.19-.192-.318-.383-.51-.637-.7-.446-1.592-.637-2.484-.574.128-.318.382-.637.446-.955-1.083-.637-3.185-1.338-3.886-2.294-.51-.446.128-1.146-.764-1.528-.128.127-.191.254-.319.382-2.484-.255-5.287 1.019-6.115 2.739-1.21-.064-2.357-.064-3.122.51.765.446 2.612.318 3.568.318-.255.128-.382.255-.574.382-.127.255-.254.51-.445.765 2.038.382 5.35-.191 6.56-1.02.83.192 1.594.383 2.294.574-.19.127-.446.191-.637.255 1.274 1.146 3.631 1.21 5.988 1.083"/><path d="M446.2 27.07l-.382-.382c-.064.255-.191.51-.319.764l.956-.382h-.255zm36.948 4.969c-.191-.127-.319-.255-.51-.382.51-.382.319.063.255-.574-1.72-.063-1.465-.7-2.74-1.019-.318.128-.636.319-.955.51.255.51.255.573 0 1.146 1.784-.063 2.293.064 3.95.319m11.084-1.529c-.064.064-.064.191-.127.255h.254c-.063-.064-.063-.191-.127-.255M483.4 31.53c.255.254 0 .063.382.254-.127-.063-.255-.19-.382-.255m-39.368.574c-.701.19-1.402.382-2.23.637.064.255.127.573.127.828 2.039-.191 3.95-.064 5.797-.573 0-.128.064-.192.128-.255-1.274-.255-2.548-.446-3.822-.637M459.5 32.233v.382h.892v-.128c-.255-.063-.573-.19-.892-.254m19.875 2.102c-.318-.765-1.401-1.21-2.293-1.465.064.318.064.637.127.955-.382 0-.828 0-1.274-.064.128.128.128.192.191.255 1.338.191 2.485.383 3.504.701-.064-.127-.191-.255-.255-.382m-22.296-1.338c-.063.064-.063.191-.127.255.382.255.637.51.955.764.383 0 .829.128 1.21.191 0-.063.064-.19.128-.19v-.383c-.7-.191-1.401-.446-2.166-.637M461.4 33.38c-.446-.064-.892-.192-1.338-.256.255.574.574.638 1.083 1.02h.574c.063-.128.063-.191.127-.255-.127-.191-.255-.319-.446-.51m-9.81 1.147c-.446.191-.956.318-1.402.51-.063.127-.19.318-.255.51l.383.573c1.019.19 1.529-.383 2.42-.574.192-.19.383-.318.51-.51-.573-.318-.828-.445-1.656-.509m20.767.764v.255c.127-.064.255-.064.382-.127v-.128h-.382M466 36.243c.255.383.573.446 1.02.637h.573c-.383-.318-1.02-.51-1.593-.637m67.589 3.058c.255.255 0 .064.382.255-.255-.255 0-.064-.382-.255m-81.476-.955l.255.254h.891v-.127c-.446-.064-.764-.064-1.146-.127m133.903 10.32c-1.019.318-1.528-.446-2.42-.956-.255 0-.446.064-.701.064.127.127.319.254.446.446-1.529.318-3.376-.701-4.969-1.083-.064.063-.064.127-.127.127.063.191.254.382.318.573-.7-.51-1.21-1.019-2.23-1.146v.127c.32.255.574.51.829.828v.128c-.701-.255-.51-.383-1.083.063-1.53-1.21-2.867-2.93-5.415-3.185.191.191.382.446.637.637-.382-.127-.7-.255-1.147-.446-.318.319-.7.574-1.019.892a.487.487 0 0 0-.127.319c1.783.446 3.567.892 5.287 1.337-.892.574-1.784.319-3.249.064l-.127.128c0 .127.064.19.127.254 2.485.637 3.504 1.338 5.16 2.166 0 .128.064.191.128.319l-1.338-.382c-.064.063-.064.127-.128.127.064.255.192.446.255.637 3.759.956 12.805 5.478 15.926 1.911v-.191c-1.593-1.02-3.95-2.548-5.033-3.759M476.6 42.359v.255l.255-.255h-.255m12.74.764c.255.319.128.255.638.383v-.128c-.255-.19-.128-.19-.637-.255m3.121.574c-.382-.064-.7-.191-1.083-.255-.127.446 0 .382-.955.318v.128c.445.573 1.083.955 1.783 1.147.191-.192.446-.319.701-.51-.191-.255-.319-.573-.446-.828M481.8 44.525c-.191-.064-.446-.064-.637-.127-.191.063-.319.127-.446.254-.064.128-.191.255-.255.383.446.318 1.21.254 1.848.127.063-.064.19-.127.19-.255-.254-.127-.509-.255-.7-.382m212.577 117.723c-.7-1.338-1.338-2.803-2.039-4.204a3.5 3.5 0 0 0 .446.573c.064 0 .128.064.255.191v-.318c.128-.637-.637-1.466-1.083-2.166.128 0 .191-.064.255-.064.319.319.637.7.956 1.02h.127c-.255-.51-.446-1.147-.637-1.657.446.446.892.956 1.465 1.465-.7-1.529-2.548-4.586-4.013-5.223.19-.574-.064-.383.51-.255-.446-1.72-3.058-3.313-3.377-5.86h.191c.191 1.464 1.21 1.082 1.848 1.655h.127c-.573-.7-1.083-1.529-1.592-2.293l.764-.573c.7-.51 1.21.955 2.038.955.064.574.128.637.255 1.274.128-1.656-.063-3.758-.318-4.331-.701-.829-1.21-2.039-1.848-3.122-2.038-3.376-3.567-6.243-5.032-10.192-.382-.956-12.868-20.385-28.73-35.356-16.436-15.352-36.247-26.054-35.992-26.118-.446.446-.829.828-1.53 1.02.128.891-.063.955.32 1.465-.447.127-.702.318-1.211.573.51.764 1.146 1.21 1.592 1.784.128.573.192 1.019.383 1.465 1.21 1.91 3.822 2.803 4.841 5.096.637.127.637-.064 1.083-.318.127.573.382 1.082.573 1.656.637.828 4.268 2.866 5.606 2.102.637-.382.7-1.338.446-2.166.255-.064.51-.191.765-.318-.064-.192-.192-.383-.255-.637v-.192c3.822 1.848 5.733 6.626 9.683 8.218.254.51.446.956.637 1.465-.701.191-.765.574-1.083 1.02.764 1.019 1.656 1.783 2.866 2.42-.382.51-.254.191-.955.064v.127c.318.446.573.637 1.146.892.255.064.51.064.765.064v-1.02c-.382-.382-.828-1.21-1.529-1.465 0-.445-.064-.19.255-.51-.255-.318-.446-.7-.828-.955.318.383.573.637.828.956.255.255.573.446.764.764.51.064 1.02.064 1.593.128h.127v-.383l-1.146-1.337c.19-.382.19-.191.127-.637.51.063 1.083.127 1.529.19a14.584 14.584 0 0 1-.573-1.018c.318.254 5.733 5.096 5.478 5.287-.764.382-.573.764-.382 1.529-.191.063-.446.127-.637.19-.956 1.148-1.21.128-2.294 0-.51-.445-.318-.127-.127-.636-.51-.319-.892-.765-1.274-1.083v.764c-.255-.063-.51-.063-.764-.127.127.764-.255.51-.446 1.465-.255-.064-.446-.127-.637-.191-.255-.255-.383-.956-.446-1.274-.255-.319-.191-.319-.637-.446.063.191.127.382.254.573-1.146 0-1.974-.955-2.802-1.592-.255-.064 0-.064.127-.191-.319-.383-.51-.574-1.147-.637-.063-.064-.127-.191-.127-.255s.064-.191.127-.255c.892.51 1.784 1.147 2.676 1.656-.51-1.21-1.784-3.057-3.25-2.548-.381-.382-.509-1.401-.89-1.975.19.128.381.191.572.319 0-.255.064-.446.128-.637-1.274-1.465-3.058-2.23-3.695-4.268-.255.127-.573.255-.892.382.128.382.191.7.319 1.083h-.51c-.255.127-.446.318-.7.382.445 2.42 5.35 6.116 5.096 7.262.318 0 .7.064 1.019.128.573 1.019 1.083 1.529 1.784 2.548-.574.19-.383-.064-.319.764-.764-.255-.892-.446-1.975-.318v.573c-.637.064-1.274.127-1.847.191l-.255.637c.127.255.319.574.51.956.51.255.382.19.955 0 .319.764.637.892.51 1.529-.319.51-.064.318-.637.127h-.128c.128 1.02.064 1.147.51 1.72-.319-.064-.7-.127-1.02-.191-.445-1.338-1.018-2.676-1.464-4.077-.064 0-.128-.064-.255-.128h-.128c.446 1.784 1.975 4.715.892 5.734-.7.637-2.102.764-2.675 1.592.318.828.764 1.657 1.146 2.548-.51.383-.828.574-1.529.701-.318.446-.637.892 0 1.338l-.382.382c-1.72.319-3.567-1.146-4.777-1.529-.128 0-.128.064-.192.128.829 1.146 1.784 1.783 2.294 3.185.127.127.255.318.382.446v.127c-1.083-.19-1.72-.382-2.42.191-.638-.382-1.147-.764-1.657-1.146-.956.446-2.42.254-3.185 1.019-.064.064-.191.064-.255.064.191 1.146 1.083 1.019 1.784 1.592-.255 0-.51.064-.828.128 1.465 1.337 3.567.955 5.605 1.72.128 0 6.498 5.988 6.562 6.306-.255-.127-.446-.318-.637-.51-.064.064-.128.064-.128.128 1.593 2.23 3.377 5.415 3.377 9.62-2.357.955-7.9-.638-11.021-1.02-.828-.064-2.867.828-4.14.382-.574-.191-.829-.7-1.72-.446-.829-.191-1.211.637-.893 1.274-.637.255-1.528.255-1.783.828-.191.128-.319.191-.51.319.064 1.401.828 1.274 1.02 2.293.445-.064.382-.064.764-.255.255 2.294 1.656 3.95 2.42 6.18.701 1.91.32 7.644-.127 9.619.637.573.956.955 1.529 1.592.255-.19.51-.318.828-.51.637 1.848 1.21 3.76 1.147 6.562 1.146-.382 2.803.319 3.504.064.445-.128.7-.701 1.528-.892 2.294-1.083 3.504 4.523 5.988 4.969.51-.51 2.485-2.421 2.676-2.867 1.847-.064 3.121-.318 4.587.191.063-.19.19-.382.318-.637.765.128.765.191 1.147.51.446-.956.764-2.612 1.21-3.44.446-.191.637-.255 1.465-.255 0-.764-.573-2.038-.127-3.44.255-.764.955-.764 1.147-1.847-4.077-2.74-.383-6.307-1.53-8.537.701-1.019 1.402-.637 2.421-1.401.637-.382 1.274-1.72 1.72-2.23-.19-1.528-2.548-3.694-1.974-5.287.127-.446.828-.764 1.083-1.274 2.102.637 3.376 1.529 5.223 2.293.892-.892.7-2.548 2.293-2.739.128-.637.255-1.21.446-1.911v-.255c3.631.7 5.734 5.67 7.581 8.218 0 0 5.16 4.969 5.351 5.096.128.064.7-.318 1.147.064.318.51.7 1.02 1.019 1.592 3.886 3.695 5.033 4.778 6.753 10.384-.383.191-1.21.382-1.593 1.02-1.338-.064-1.338-.192-2.166-.893-.191.319-.191.255-.255.701-.19-.127-.318-.255-.51-.446h-.127c-.063.574-.19 1.21.128 1.784.19.51 5.096 4.395 5.733 4.65h.127c-.318-2.038-1.337-3.185-1.337-5.67l.764.574h.127c.319-1.02.064-2.42-.382-3.313.128-.764.064-.573.573-.828-.445-1.72-1.274-1.91-2.165-2.994-.255-1.083-.51-2.102-.765-3.185.064-.064.191-.127.255-.191.573.892 2.102 2.42 2.994 2.994-.764-2.994-3.631-5.478-6.18-6.753-.318-.51-.445-.828-.445-1.783-.765-.446-1.402-.128-2.23-.828-1.975-1.593-2.866-4.141-4.395-6.116-1.338-1.784-3.886-2.42-4.587-4.778.064-.318.128-.573.128-.955-.255-.7-1.02-.892-1.274-1.847.7-.192.7-.383 1.019-.892.19.063.382.063.51.063.509.637 1.528 2.485 1.91 3.44.064.064.192.128.255.191l.128-1.019c.19.574.51 1.02.7 1.465.128.064.255.191.383.319-.128-.446-.319-.828-.51-1.274 1.274.51 1.72 2.675 2.42 3.44.956 1.21 2.421 1.91 3.313 2.803a1.2 1.2 0 0 1-.51-.128c.32.574.574.765.956 1.274.191 0 .446 0 .637.064l-.637-.637c.064 0 .128-.064.255-.064l.764.574c.064.127.064.19.128.318l-.765.191c.51.574.446 0 1.147.383 1.529.764 3.95 3.312 4.841 4.714.765 1.974 1.466 3.95 2.294 5.988.892 1.656 2.93 3.376 3.758 5.223.319-.063 0 0 .383-.127 0 .127-.319.7 0 1.401.382.574 1.146 1.338 2.165 1.53-.254.764-.254.509-.318 1.592.955 1.401 1.847 2.675 2.42 4.395.128.191.255.255.383.382h.127c-.063-.382-.127-.7-.255-1.019h.128l.955 2.102c.064.064.128.128.255.128-.127-.319-.19-.7-.255-1.02.255.32.574.638.829.956h.127M432.494 54.845c-.765-.382-1.656-.51-2.803-.637-.191.127-.446.191-.637.255.382.764 2.42 1.465 3.376 1.72h.191c.128-.637 0-.892-.127-1.338"/><path d="M500 58.86c.255.446-.064.127.382.382h.128c.063-.063.127-.127.127-.255-.191 0-.446-.063-.637-.127m7.198 6.498c.064.127.192.255.255.382h.191v-.127c-.19-.064-.318-.192-.446-.255m-4.522 2.357c-.319.063-.638.127-.956.318-.127.828-.127.255-.382.765 1.91-.128 3.63-.383 5.35-.51-1.337-.127-2.675-.382-4.012-.573m8.854 2.739c0 .382-.127.191.255.573l.319-.318v-.128c-.128 0-.319-.063-.574-.127m-28.539 4.523c-.063.064-.063.191-.127.255 3.058 1.974 5.224 3.567 9.3 4.841a.483.483 0 0 1 .255-.127v-.383c-2.166-1.91-5.797-4.395-9.428-4.586m34.464 2.166c-.064.127-.064.318-.128.382.446-.191.191.127.382-.382h-.254m116.066 26.564c-.063-.255-.19-.573-.254-.828-.701-.064-1.338-.128-1.911-.191.254-.51.955-1.402.764-2.294-.318-1.337-2.74-4.013-4.268-2.293-.127-.064-.255-.127-.382-.127-.892-1.784-2.166-3.823-4.332-5.097-.892-.446-1.656-.764-2.485-1.146-2.165-2.102-3.248-3.759-6.688-3.822a18.11 18.11 0 0 0 1.146-.701c-.254-.191-.446-.382-.7-.51.51-1.146-.064-1.975.127-3.058-1.274-1.146-3.504-.891-5.16-.51 0-.827.255-.509-.446-.827.191-.637.446-.956 1.02-1.274-.192-.319-.255-.574-.32-.956-1.4-.318-2.802.382-4.14-.127-.318.446-.255.51 0 .955-.255.574-.127.637.319 1.147-.064.064-.255.064-.319.127-.446-.063-.255-.127-.51.319.255.446.51.828.829 1.274v.127c-.637-.446-1.21-.828-1.784-1.274-.255.51-.191.255-.573.765.7.764 2.166 1.274 2.93 1.337.127.192.191.383.255.51-.191.127-.446.255-.637.382.318.701.51.701.382 1.53l1.338-.192c.063-.191.19-.446.19-.7v-.256h.128c.255 1.466 1.02 2.549 1.402 4.077h.637c0-.063.063-.19.127-.254-.127-.191-.19-.446-.382-.637.382.19.637.318.892.51h.127l-.382-1.339c.319.255.7.574 1.083.829.255.573.255 1.146 0 1.974.382.319.892.637 1.274 1.02h.127c-.063-.191-.19-.383-.254-.51v-.127c.382.127.764.318 1.21.446v-.51c.956.382 1.274.127 1.911-.382 1.02 1.146.573 2.994 2.803 2.612.064 1.146.319 1.528.7 2.23-1.082.827-2.165.19-3.312 0 .191.891.51.7 1.02 1.21-.192.254-.383.445-.51.637 0 .127.063.19.127.254.319-.127.7-.254 1.083-.382.319.446.765.956 1.147 1.465-.191.828-.956 1.21-1.784 1.274-.127.191-.318.319-.446.446.446.446.892.828 1.338 1.21 1.529-.764 2.867.192 4.395.701.446-.19.829-.382 1.147-.51-.191.447-.127.383-.127.893h-2.74c.064 1.274-.828 2.675-1.847 3.63v.255c.7.064.765-.063 1.465.446.446-.573.191-1.019 1.21-1.274.701-.19 1.53.191 2.23.383.064-.446-.127-1.275.255-1.593 0 0 4.396.382 4.523.382h.446c-.128-.19-.255-.382-.319-.637 2.103.128 3.122.064 4.778-.764.064-.064.064-.191.127-.255M525.7 93.194c-.637-.191-.764.382-1.911.573-.064-.19-.127-.382-.127-.51.318-.573.828-.891 1.528-1.146 0-.127.064-.255.128-.318-.064-.064-.128-.064-.128-.128-1.783.128-2.102.51-3.057 1.21-.128-.19-.191-.318-.319-.51-.318-.063-.064.128-.382-.127.955-.891 2.994-1.401 3.376-1.783l.255-.255c-.573-.573-2.039-.446-3.121-.573.382-.829.063-.255-.064-1.338.764-.128 1.083-.255 1.529-.765-.892-.764-2.357-1.592-3.631-1.337-.51-.637-.064-.956-.892-1.274-.382.127 0 .254-.446.063-.064.383-.128.255.127.574-.255 0-.51-.064-.828-.064-.764.064-.51.064-.446-.637-.637.064-.382-.064-.51.318-.509-.254-.764-.445-1.4-.445.063-.128.19-.255.254-.383-.51-.255-.127-.127-.637 0l-.255-.255v-.637c.51 0 1.02 0 1.656-.063v-.128c-.891-.573-1.783-.573-2.675-1.274-.828.319-1.593.637-2.485.956.383-1.402 2.867-2.548 4.205-2.867.127-.255.318-.446.573-.7-.446-.32-.446-.383-1.147-.446v-.255c.701.19 1.21.382 1.975.318.064-.063.128-.19.255-.255 0-.127.064-.254.128-.382-.701-.19-1.466-.382-2.23-.637-.765.064-1.656.064-2.42.064-.574.127-2.04.955-2.804 1.338-1.465.764-2.038 2.611-4.013 3.057-.255.51-.191.383 0 .956v.127c-.573-.127-.382-.063-.7-.318-.893.19-1.275.828-1.784 1.401.254.255.573.51.828.701-1.147-.191-2.548.446-3.886.637.064.51.127.956.255 1.402 2.293.573 11.53 2.42 12.294 3.248-.19 0-.382-.063-.573-.063.892.382 1.847.7 2.74 1.083.254-.255.19-.191.254-.637.637.19 1.274.446 1.847.7-1.21.446-2.357.765-4.268.574a2.962 2.962 0 0 1-.19.573c2.93 1.147 5.223-.191 7.77-1.02.192.256.383.574.574.765-.063 1.147-.7 1.465-1.465 1.975.191.51.128.382.637.7.637-.19 1.21-.382 1.848-.573-.255.446-.383.637-.383 1.53.765.19 1.338.381 2.039.573 1.083-.574 1.338-1.593 2.23-2.166-.064-.446-.064-.765-.128-1.147m77.463-12.74c-.255-.064-.446-.064-.7-.128-.32.319-.702.7-1.084.956.446.445.637.637.7 1.082.192.064.32.128.447.255.318-.318.573-.573.955-.828-.127-.446-.254-.892-.318-1.338"/><path d="M516.1 80.071v.255c.064-.064.191-.128.255-.255h-.255m86.381 2.803c-.19-.064-.382-.191-.573-.255-.127.064-.382.191-.573.255.573.573.828.955 1.146 1.593.128.063.319.127.446.127-.19-.51-.318-1.083-.446-1.72M516 80.58l.382.382c.128 0 .191-.063.255-.063v-.128c-.191-.064-.382-.127-.637-.191m120.908 4.46c.064.127.255.254.319.381h.127c-.318-.445.064-.127-.446-.382M605 84.596c.127.191.255.319.382.51a.483.483 0 0 0 .128-.255c-.128-.064-.319-.191-.51-.255m-2.484.191v.255c.127-.064.254-.064.382-.127v-.128h-.382m2.803 1.02l-.128.127v.127l.128.128h.127c.064-.128.127-.255.127-.383h-.254m-.574.383v.382H605c-.127-.382 0-.128-.255-.382m-102.37-2.421h-.829c-.063 0-.127.064-.254.064-.064.127-.064.254-.128.445.637.128 1.274.192 1.847.255-.19-.255-.445-.51-.637-.764M520.5 85.233c-.064.191-.127.319-.127.51.318 0 .7.063 1.019.063-.191-.637-.128-.51-.892-.573m87.592 2.102c-.383.51-.446.7-1.147.892.255.828.446.573 1.02.956.381-.383.573-1.338.127-1.848M607.1 87.46l-.127.127v.128c.063.064.19.064.254.127.064-.063.128-.063.128-.127l-.255-.255m-124.603-1.338c-.573-.255-.382 0-.446-.637-.637-.637-.319-.446-.127-1.274-.128 0-.255-.064-.383-.127-.51.19-1.019.382-1.592.573 0 .127-.064.191-.128.255 1.466 1.338 2.803 2.102 4.842 2.93.446.255.19 0 .318.382.319.383.51.446 1.02.701 1.337-.255 1.146-.892 2.994-.828 0-.064.063-.064.127-.127v-.128c-.956-.382-6.625-1.72-6.625-1.72m127.597 2.23h-.318v.51c.254-.064.382-.064.573-.128-.064-.127-.191-.255-.255-.382m.828 6.243a.673.673 0 0 1-.127-.319c.828-.255.764-.637 1.401-.955v-.637c-1.019-.956-1.847-.956-2.739-2.166-.956-.574-1.847-.382-2.612.318.064-.318.064-.19.255-.573-.382-.191-.764-.382-1.21-.51-.446.383-1.147.701-2.039.765-.127.892-.064.892-.573 1.465.51.51 1.02.382 1.656.191-.255.764-.51.573-.51 1.147-1.274 0-2.484.063-3.758.063.064.765.191.255.51.765l-.383.19c.51.51 1.02.447 1.784.447-.446.51-.51.573-.892 1.02 1.02 1.4 1.911.509 3.568 1.018-.956.637-.637.637-.637 1.53-.637.636-.574.445 0 .827-.383.637-.319.255-.192.956-.318 0-.7-.064-1.082-.064-.128.255-.192.446-.319.765.51-.128 1.083-.255 1.593-.319-.319.191-.637.446-1.02.637 1.657 4.013 7.454-1.147 10.002-1.083-.128-1.783-.892-4.586-2.676-5.478M522.3 88.418c-.064.127-.064.255-.127.382.127-.063.254-.063.382-.127l-.255-.255m124.476 3.249c.127.191.19.446.254.637.319.127.638.191 1.02.318-.382-.573-.637-.7-1.274-.955m-177.987-2.994c-.127.19-.254.318-.382.51.064.063.128.063.255.127.382-.255.319-.128.51-.637h-.383M479 89.244c-.064.191-.064.319-.127.51.127.127.254.19.382.254.828-.063 1.656-.19 2.484-.254-.892-.191-1.847-.319-2.739-.51m135.433 3.567c-.064.255-.255.51-.319.765.064.127.064.255.191.446.191-.128.446-.128.7-.191 0-.128.065-.255.128-.383-.255-.19-.446-.446-.7-.637m-154.353-3.95c-.063.447-.127.32.128.638.063-.064.19-.128.254-.255l-.382-.382M493.7 90.263h-.255a.483.483 0 0 0-.127.255c.382-.064.637.127.382-.255m-32.87-.892v.255l.254-.255h-.255M493.4 90.645h-.764c-.255.127-.51.319-.765.446.51.064 1.147.064 1.656.064v-.128c-.063-.127-.063-.255-.127-.382m17.646.764c.063.192.19.383.255.51a.497.497 0 0 0 .254-.255c-.127-.063-.318-.127-.51-.255m8.855.51c-.19.127-.382.255-.51.382-.063.191-.127.319-.127.446h.383c.19-.127.51-.255.7-.446v-.382h-.446m-49.433-1.338c.255.128.064.128.255 0h-.255M511 92.113a.483.483 0 0 0-.127.255c.127.064.254.127.382.127s.19-.063.255-.127c-.128-.064-.319-.128-.51-.255m.51.446v.255c.063-.064.254-.128.318-.255h-.318m137.726 3.631c.254.127.573.255.828.446v-.127c-.255-.255-.255-.192-.828-.319m-9.683 1.02c-.064.063-.064.127-.128.254.382-.127.191 0 .382-.255h-.254m-1.53.701c-.063.064-.063.191-.127.255l.128.127.255-.255v-.127h-.255m-.191.892v.382h.254c-.19-.382 0-.127-.254-.382M452.33 94.597v.255l.254-.255h-.254m-5.033.51c-.064.191-.064.319-.127.446.19-.255.254-.064.127-.446M449.7 96.251c-.255.064-.446.191-.7.255v.255c.445.063.891.127 1.337.127v-.127c-.255-.383-.127-.319-.637-.51m-7.58.127c-.064.064-.192.064-.255.128v.127c.19-.063.445-.19.7-.255M445.7 96.445c.255.127 0 .127.255 0h-.255m-1.656.127l.255.255h.127c-.191-.255 0-.063-.382-.255m7.453.637c-.064.064-.064.192-.127.255.19.064.445.191.637.255h.127a.88.88 0 0 0 .191-.255c-.318-.19-.318-.19-.828-.255m-152.76 9.428c-.573 1.53-1.083 2.612-1.338 3.95h.128c.573-1.02 2.102-2.23 1.21-3.95m-2.23 5.097c.383-.319.192-.191.255-.51-.063.191-.19.319-.254.51m124.985 2.166c-.064.063-.064.19-.128.254h.446c-.063-.063-.19-.19-.318-.254m-127.342 8.727c-.128.637-.319 1.274-.446 1.975.063.063.063.127.127.255l.191-.064c.191-.637.319-1.338.51-1.975l-.382-.191m373.681 3.758l.383.574v-.382l-.383-.192M345.9 123.898c-.064.191-.191.382-.255.51.255-.255.382-.191.255-.51m12.804-.255c-.446.382-.828.446-1.083 1.083.892.128 1.53 0 2.294 0v-.127a20.077 20.077 0 0 0-1.21-.956m-16.5 1.911c-.063.128-.255.255-.318.382.255-.063.382-.19.573-.254-.064-.064-.191-.064-.255-.128m332.148 9.556v.382c.063 0 .19 0 .254.064-.19-.446 0-.191-.254-.446M663.7 134.542l.382.956c-.255.19-.51.382-.764.51 0 1.72 1.274 4.012 2.357 4.65.127.063.19.19.318.318h.128c-.064-2.038-1.02-5.67-2.421-6.434M665.7 135.242c-.064.064-.191.064-.255.127v.383c.191 0 .446.063.637.063-.127-.446-.063-.318-.382-.573m-378.268 8.09c-.064.128-.064.191-.128.255.128.191.255.319.446.51.064 0 .064 0 .128-.064-.064-.637 0-.51-.446-.7M670.2 150.342c-.446-3.121-1.847-6.498-3.376-8.664-.128-.063-.255-.127-.446-.19-.128.445-.191.827-.319 1.21-.573.382-.382.382-1.019.063.127 1.593 1.72 3.058 2.23 4.396.446 1.02.127 2.293.382 2.994.573.318.637.764 1.784.955-.064-.382-.128-.764-.128-1.083.319 0 .382.064.765.319h.127m18.283-5.606v.51c.127.127.255.19.382.382-.064-.637-.064-.573-.382-.892m1.21 1.083c.064.191.191.382.255.573h.127c-.19-.51 0-.254-.382-.573M688.7 147.212c.064.255.191.446.255.7-.191-.19-.319-.318-.51-.445.191.255.319.637.51.892.127-.128.255-.255.382-.446-.191-.191-.382-.446-.637-.701m1.465.7v.383c.191.127.319.318.51.446v-.51c-.191-.127-.319-.19-.51-.318m1.274 4.204v.382c.255.128.446.191.574.319-.128-.255-.319-.446-.574-.7m-66.57-2.167c.064.255.064.51.192.765 0-.319.063-.51.063-.765h-.254m63.32 4.077v1.083c.128.128.255.255.383.446.127.064.254.127.318.191.128-.064.128-.19.191-.255-.318-.51-.573-1.019-.892-1.465M690.7 154.792c-.191-.064-.382-.127-.51-.191.383.382.765.764 1.147 1.21.064-.127.191-.127.319-.318-.383-.191-.637-.446-.956-.701m-1.593 1.529c.064.191.064.382.128.51.255.19.382.318.573.445v-.51c-.191-.127-.51-.318-.7-.445m-369.287.191v1.147c.191-.128.319-.128.51-.128v-.127c-.128-.446-.191-.637-.51-.892m374.383 6.18c.127.254.254.509.382.827.064-.127.127-.19.127-.255-.19-.19-.318-.382-.51-.573M497.299 394.315c-.064.191-.064.446-.128.574.191-.128.446-.383.637-.574M492.9 394.572c-.191.064-.319.191-.446.255.064.127.191.19.255.255h.7v-.128c-.127-.127-.318-.255-.509-.382m1.083.127v.255c.064-.063.191-.127.255-.255h-.255zm-21.786 13.187c-.064.127-.064.255-.128.382.255-.191.064 0 .255-.382h-.127zm-.255.7c-.064.128-.064.255-.191.383.127-.064.254-.128.318-.255l-.127-.127m-9.874 8.854v-1.21c-.701 0-1.274.191-1.911.255-.701 1.592-2.421 2.484-3.823 3.44v.127c.255.064.446.191.701.319 1.274-.191 2.166-.701 2.994-1.274v-.637c.828-.191 1.465-.637 2.039-1.02m-75.042 4.077c.254.191.063.191.254 0h-.254zm-.51 4.077c-.064.064-.064.191-.127.255.063.064.19.128.254.128s.064-.064.128-.128l-.255-.255m34.782 9.683c.127.701.064.828.764 1.147v-.128c-.255-.573-.063-.764-.764-1.019m-30.068 3.44c.255.446 0 .128.382.319.064 0 .128-.064.128-.191v-.128h-.51zm-3.249 2.93c.064.128.255.255.319.383h.51v-.128c-.256-.19-.256-.19-.829-.254m1.02 2.93v.382h.382l-.383-.382m1.402 1.91c-.064.065-.064.192-.128.256h.255c-.063-.064-.063-.191-.127-.255m12.295 20.767l-.128.128c.064.127.191.19.319.254.127 0 .254-.063.382-.127-.128-.064-.319-.191-.573-.255m2.548 1.21c-.128-.063-.255-.063-.446-.127-.255.191-.51.382-.828.51.828.127 1.21.382 1.528-.383M408.4 468.472c-.191-.064-.446-.064-.637-.127-.127.063-.255.063-.446.127.127.064.191.064.319.127l.382.383c.19-.064.318-.128.573-.255-.127-.064-.127-.191-.191-.255"/><path d="M409.7 470.632v-.127c-1.147-.128-1.593-.064-2.293-.51-.128-.956 0-1.274-1.02-1.529.192.956.51 2.102.446 2.676.128.063.319.127.446.127.128-.318.255-.573.383-.892.063 0 .19.064.254.128.255.637.637 1.21 1.274 1.528-.318-.318-.51-.7-.764-1.019v-.127c.446-.064.892-.191 1.274-.255m-2.166 2.038c.064.064.064.192.128.255.063-.063.063-.19.127-.255h-.255zm8.6 2.867c-.064.51-.127.191.382.382l-.382-.382m3.95.128c.318.445.955.382 1.656.573.064-.128.064-.191.127-.319-.637-.063-1.21-.19-1.783-.254m54.275-465.67c-102.945 0-191.3 62.493-229.204 151.55C280.128 99.307 354.087 24.584 474.231 24.711c108.486.064 189.58 65.36 229.33 136.961C665.723 72.552 577.304 9.996 474.36 9.996"/><path d="M711.8 334.502c-32.234 98.676-123.01 175.502-237.994 175.502-121.928 0-203.85-75.743-236.848-173.336 34.336 90.904 127.47 156.072 237.102 156.072 110.334 0 204.169-66.25 237.74-158.238m-663.34-8.345c-24.844 0-38.03-15.862-38.157-46.057l-.319-69.246c0-.764.573-1.401 1.338-1.528l21.595-2.103c.446-.063.828.128 1.147.446.318.255.446.637.446 1.02l.382 68.544c.064 15.034 5.797 22.678 17.072 22.678.828 0 1.784 0 2.676-.127 13.186-1.274 19.939-10.256 19.811-26.692l-.318-68.48c0-.765.573-1.402 1.338-1.53l21.722-2.101c.446-.064.829.127 1.147.445.319.255.446.637.446 1.02l.319 69.309c.127 18.6-5.479 50.325-44.274 54.083-2.23.192-4.332.319-6.37.319M122.4 316.282c-.382 0-.7-.127-.956-.382-.318-.255-.51-.637-.51-1.147l-.572-114.283a1.53 1.53 0 0 1 1.401-1.529l23.06-1.593c.51 0 1.02.192 1.338.574l48.86 64.531-.318-67.143c0-.764.573-1.401 1.401-1.465l18.665-1.338c.383 0 .765.127 1.083.382s.446.637.446 1.083l.574 114.347c0 .828-.637 1.465-1.402 1.465l-19.11 1.402c-.51 0-1.02-.191-1.339-.637l-52.81-69.946.383 72.876c0 .765-.573 1.402-1.402 1.465l-18.6 1.338h-.192m121.864-7.835c-.446 0-.765-.192-1.083-.446a1.537 1.537 0 0 1-.446-1.083l-.637-113.965c0-.764.637-1.401 1.401-1.465l24.845-1.274c.382 0 .828.127 1.083.382.318.255.51.7.51 1.147l.509 113.9c0 .892-.637 1.53-1.402 1.53l-24.716 1.274h-.064m91.414-3.886c-.574 0-1.083-.319-1.338-.956l-48.542-112.5c-.255-.509-.255-1.019.064-1.4.255-.383.7-.638 1.21-.702l28.412-.828c.637 0 1.146.319 1.401.892l31.66 73.513 32.617-75.488c.19-.573.7-.892 1.337-.892l22.36-.637c.573 0 1.02.192 1.274.637s.319.956.128 1.402l-49.816 115.493c-.255.51-.765.829-1.274.829l-19.43.637zm87.973-2.166c-.764 0-1.465-.637-1.465-1.465l-.7-113.965c0-.382.19-.765.51-1.083.254-.319.636-.446 1.018-.446l91.35-.127c.829 0 1.466.7 1.466 1.529l.127 22.232c.064.382-.191.7-.446 1.02-.255.254-.637.381-1.019.381l-63.703.064.064 19.812 42.808-.064c.828 0 1.529.637 1.529 1.401l.064 22.424c.063.382-.128.764-.446 1.083-.255.255-.637.446-1.02.446h-42.744l.127 21.404 64.34-.064c.828 0 1.465.637 1.465 1.465l.128 22.36c0 .446-.128.828-.446 1.083-.255.255-.637.382-1.083.382zm220.158 3.44h-.064l-29.558-.828c-.51-.064-.955-.319-1.21-.765l-25.035-43.063-16.181-.51.191 41.535c0 .382-.191.764-.446 1.019s-.7.382-1.083.382l-24.908-.7a1.442 1.442 0 0 1-1.465-1.466l-.51-114.347c0-.382.128-.828.446-1.083.255-.254.637-.446 1.02-.382l62.747 1.848c20.831.637 32.807 13.887 32.935 36.374.127 21.723-11.467 30.768-21.978 34.527l26.373 45.23c.255.509.255 1.082 0 1.528s-.764.7-1.274.7m-72.303-70.2l20.258.573c.892 0 1.783.064 2.612.064 7.516 0 11.848-1.083 14.205-3.504 1.911-1.847 2.74-4.841 2.74-9.682-.064-5.415-1.083-10.257-13.378-10.639l-26.564-.828zm137.216 76.89c-1.592 0-3.185-.064-4.841-.128-17.646-.955-36.12-11.976-41.343-15.352-.446-.319-.701-.765-.701-1.274l-.127-26.373c0-.51.318-1.02.828-1.274.446-.255 1.019-.192 1.465.063 16.053 10.702 31.278 17.582 39.942 18.028 8.154.51 13.568-.7 16.244-3.44 1.401-1.338 2.038-3.058 1.975-5.223 0-2.612-2.612-5.097-8.282-7.963-3.248-1.593-7.262-3.25-11.466-4.97-17.837-7.325-42.235-17.326-42.363-44.336-.063-8.983 2.803-16.436 8.41-22.17 7.325-7.261 18.983-10.956 32.105-10.319 15.417.892 33.763 8.727 42.363 13.887.446.255.7.701.7 1.274l.128 25.545c0 .51-.318 1.02-.764 1.274s-1.02.255-1.53-.063c-5.287-3.44-23.824-14.843-40.897-15.735-6.115-.319-9.11 1.338-10.447 2.612-1.274 1.274-1.465 2.548-1.465 3.249.064 2.803 2.74 5.542 8.345 8.6 3.44 1.847 7.708 3.63 12.295 5.478 17.518 7.453 41.598 17.518 41.662 41.79.063 10.892-3.058 19.556-9.301 25.799-7.326 7.262-18.347 11.02-32.935 11.02m155.945 7.199h-.127l-24.59-1.847c-.573 0-1.082-.383-1.273-.956l-8.282-22.997-40.005-2.866-8.473 21.595c-.19.573-.828 1.02-1.465.892l-20.64-1.465a1.571 1.571 0 0 1-1.146-.765c-.255-.382-.319-.828-.128-1.274l44.21-112.053c.255-.574.828-.956 1.465-.892l17.264 1.21c.573 0 1.019.446 1.274 1.02l43.318 118.423c.19.51.127 1.02-.191 1.402-.255.382-.765.573-1.21.573m-64.532-53.256l20.64 1.53-10.129-28.03zm152.76 61.474h-.127l-70.902-6.625c-.764-.064-1.338-.637-1.338-1.402l-.7-115.748c0-.382.254-.828.573-1.083.255-.255.637-.382 1.083-.382l21.404 1.974c.828.064 1.338.701 1.338 1.466l.446 91.668 48.287 4.396c.764.063 1.337.764 1.337 1.529l.128 22.678c0 .446-.191.828-.51 1.083-.255.318-.573.446-1.019.446"/></g></svg>