<svg xmlns="http://www.w3.org/2000/svg" viewBox="-231.5 619.2 2120.3 512"><g fill="#867b6e"><path d="M1660.582 791.57c11.96 0 21.925-6.312 23.254-14.284l11.96-133.877c0-13.288-15.614-24.25-34.882-24.25-19.6 0-34.88 10.962-34.88 24.25l11.958 133.877c.997 7.972 10.63 14.284 22.59 14.284M1588.162 833.427c5.98-10.298 5.648-21.925-.664-27.24l-109.958-77.07c-11.295-6.644-28.57 1.328-38.203 18.27s-7.973 35.878 3.322 42.19l121.917 56.806c7.309 2.658 17.607-2.657 23.586-12.956M1733.002 833.427c5.98 10.299 16.277 15.946 23.918 12.956l121.917-56.806c11.627-6.644 13.288-25.58 3.322-42.19-9.633-16.942-26.908-24.914-38.535-18.27l-109.958 77.07c-5.98 5.315-6.644 16.942-.664 27.24M1660.582 958.999c11.96 0 21.925 6.312 23.254 14.285l11.96 133.876c0 13.288-15.614 24.25-34.882 24.25-19.6 0-34.88-10.962-34.88-24.25l11.958-133.876c.997-8.305 10.63-14.285 22.59-14.285M1733.002 917.142c5.98-10.298 16.277-15.946 23.918-12.956l121.917 56.806c11.627 6.644 13.288 25.58 3.322 42.522-9.633 16.942-26.908 24.915-38.535 18.27l-109.958-77.07c-5.98-5.647-6.644-17.274-.664-27.572M1588.162 917.142c5.98 10.298 5.648 21.925-.664 27.24l-109.958 77.07c-11.295 6.645-28.57-1.328-38.203-18.27s-7.973-35.878 3.322-42.522l121.585-56.474c7.64-2.99 17.939 2.325 23.918 12.956M966.284 944.05c0 3.986-.332 8.305-1.329 11.96-4.65 15.613-20.596 28.568-40.86 28.568-16.61 0-29.898-9.633-29.898-29.565 0-30.563 33.884-39.2 72.087-38.868v27.905zm60.128-53.484c0-50.495-21.593-95.01-94.677-95.01-37.538 0-67.104 10.631-83.382 19.933l11.96 40.528c14.948-9.302 38.534-17.274 60.792-17.274 36.874 0 43.186 20.928 43.186 34.548v3.322c-80.725 0-131.884 27.905-131.884 84.711 0 34.881 25.912 67.437 71.091 67.437 27.905 0 51.159-10.963 64.78-28.901h1.328s9.302 38.535 60.128 23.918c-2.657-15.946-3.654-33.22-3.654-53.816l.332-79.396M-231.63 726.459s52.82 216.262 61.126 251.143c9.966 40.86 27.572 56.142 78.731 45.844l32.888-133.877c8.305-33.22 13.952-57.138 19.267-91.023h.997c3.654 34.217 9.302 57.803 15.946 91.023 0 0 13.288 60.793 20.264 92.684s25.911 52.155 76.074 41.193l78.399-296.987h-63.45L61.703 855.02c-7.308 37.539-13.62 66.773-18.935 100.657h-.997c-4.65-33.884-10.298-61.79-17.606-98.331L-3.74 726.459h-66.108l-29.898 127.565c-8.305 38.867-16.278 70.094-21.26 102.982h-.997c-5.315-31.227-11.96-70.427-19.6-107.965 0 0-17.607-91.355-23.918-122.582h-66.108M271.986 944.05c0 3.986-.332 8.305-1.661 11.96-4.65 15.613-20.596 28.568-40.86 28.568-16.61 0-29.899-9.633-29.899-29.565 0-30.563 33.885-39.2 72.088-38.868l.332 27.905zm60.46-53.484c0-50.495-21.593-95.01-94.677-95.01-37.538 0-67.104 10.631-83.382 19.933l11.96 40.528c14.948-9.302 38.535-17.274 60.792-17.274 37.206 0 43.186 20.928 43.186 34.548v3.322c-80.725 0-131.883 27.905-131.883 84.711 0 34.881 25.911 67.437 71.09 67.437 27.905 0 51.16-10.963 65.112-28.901h1.328s9.302 38.535 60.129 23.918c-2.658-15.946-3.655-33.22-3.655-53.816v-79.396M433.103 960.66V726.459h-60.46v296.987h60.46V960.66M1222.41 726.459v219.252c0 30.23 5.648 51.491 17.939 64.447 10.63 11.295 28.237 18.603 49.166 18.603 17.938 0 35.545-3.322 43.518-6.644l-.665-47.172c-6.311 1.66-13.288 2.657-22.921 2.657-20.597 0-27.573-13.288-27.573-40.196v-83.714h52.488v-56.807h-52.488v-70.094h-59.464M1066.608 800.54v223.238h62.122V909.501c0-6.312.332-11.627 1.329-16.61 4.65-23.918 22.921-39.2 49.165-39.2 7.309 0 12.292.665 17.939 1.662v-58.468c-4.65-.996-7.973-1.328-13.62-1.328-23.254 0-49.498 14.949-60.793 47.172h-1.66v-42.19h-54.482M475.292 800.54v223.238h60.793V892.891c0-5.98.664-12.623 2.99-18.27 4.983-13.289 17.274-28.57 36.874-28.57 24.583 0 35.878 20.596 35.878 50.494v127.233h60.46V891.23c0-5.98.664-12.956 2.658-17.939 4.983-14.949 18.27-27.24 36.542-27.24 24.915 0 36.874 20.264 36.874 55.477v122.25h60.792V892.227c0-69.43-35.213-96.67-75.077-96.67-17.606 0-31.559 4.318-44.182 11.959-10.63 6.644-19.932 15.613-28.237 27.905h-.997c-9.634-23.919-32.223-39.864-61.457-39.864-37.87 0-54.813 19.267-65.111 35.213h-.997v-30.23h-57.803"/></g></svg>