<svg xmlns="http://www.w3.org/2000/svg" viewBox="52 0 465 437"><path d="M516 203.91s-.348-.998-.348-.307c0-7.458-.191-11.378 0-17.529 0-2.151.157-5.074 0-7.534-1.267-.461-5.074-2.385-4.342-2.154-29.637-12.223-36.482-16.298-59.971-22.449-50.74-13.685-110.59-19.221-159.87-19.376 11.724 0-136.24-6.379-225.27 36.827-4.19 2.077-12.149 6.997-12.149 6.843-.345 1.692-1.036 3.922-1.036 3.998-.577 3.383-.348 14.455-.348 29.909 0 6.533 0 24.37.694 26.062 2.537 5.535 8.304 8.229 8.304 8.229 5.229 2.767 14.106 4.381 20.604 5.765 3.806.692 9.763.613 10.839 3.534 17.878 47.594 54.164 87.877 54.164 87.877 37.595 43.056 102.64 85.417 137.5 93.413 3.232.693 9.921-2.613 14.995-4.843 11.187-4.921 19.336-6.458 56.892-31.059 65.431-44.979 95.759-89.571 115.1-129.86 3.42-7.074 4.344-9.842 6.649-15.145 1.306-2.998 8.686-1.845 12.148-1.999 8.843-.386 15.874-1.77 20.412-6.613 4.687-5 4.495-9.073 4.495-9.073.191-2.306.191-7.458.191-10.917.01-7.69.01-16.54.35-23.61m-23.64 37.44c-2.036 1.537-2.536 1.92-5.996 2.15-2.693 0-2.307-.766-2.502-1 .692-3.612 2.154-6.61 3.229-10.222-8.302-4.077-30.328-11.919-32.904-12.61-1.384-.461-1.384.616-2.153.691-1.424 4.614-5.959 18.529-5.035 15.836-5.422 16.456-22.602 55.435-52.395 87.573-26.372 28.522-66.852 61.274-103.14 77.805 0-.077-4.15 1.768-8.686 1.075-8.115-1.152-20.416-7.531-41.365-22.449-20.259-14.223-46.785-35.058-74.421-67.039-31.255-35.985-45.748-86.189-48.976-95.645-3.267.462-5.42 1.077-8.112 2.154 0 0-18.8 7.536-25.485 10.687.345 3.996 1.267 5.766 2.152 8.995-1.807.23-3.768.382-6.845-.306-.882-.234-1.958-.54-2.497-1-7.419-6 8.842-11.456 19.875-16.147 43.516-18.374 107.79-30.138 186.4-30.213 65.196 0 111.63 8.764 170.68 25.139 13.224 3.614 24.797 8.764 31.48 11.379 9.56 3.76 11.21 9.53 6.71 13.14m3.96-46.21l-.539-.307c-2.536-1-1.963-8.996-5.805-10.61-1.957-.846-2.496.923-2.496 3.075 0 6.305 10.3 11.378 10.3 24.91 0 7.304-3.613 12.454-8.839 10.226-2.385-.923-4.194-3.69-5.078-4.152-.727-.308-1.267.231-1.457.614l-1.424-.614v-12.762l.884.383c2.346 1 1.424 9.148 5.957 11.071 1.811.769 3.077-.537 3.077-3.613 0-8.38-9.918-11.224-9.918-24.295 0-7.304 2.881-12.07 7.537-10.072 3.071 1.229 3.995 3.306 5.299 3.845.157.154.888.23 1.386-.462l1.116.462v12.28zm-35.44-18.22c0-1.538-.151-1.845-1.035-2.846-.771-.922-.922-1.306-.922-2.767v-2.23l12.301 4.229c1.959.691 4.112 1.153 5.226.999v12.917l-1.113-.385c-1.231-.461-.884-7.304-4.112-8.456l-2.885-1.077v12.149l.884.307c2.346.846 1.422-3.614 2.885-3.075l1.075.307v13.301l-1.075-.308c-1.463-.538-.539-4.381-2.885-5.15l-.884-.385v14.532l3.229 1.153c4.345 1.538 3.075-7.843 5.077-7.151l1.075.385v13.916l-18.798-6.535v-2.307c0-1.46.151-1.614.922-1.998.884-.462 1.035-.616 1.035-2.154v-27.36zm-11.15 30.99l-2.188-13.531c-.885-5.152-1.464-6.383-2.154-6.614l-.536-.152v11.685c0 1.538.152 1.845.885 2.767.921.923 1.073 1.232 1.073 2.691v2.306l-11.377-3.459v-2.23c0-1.538.191-1.69.922-2.075.884-.461 1.074-.692 1.074-2.229v-27.37c0-1.539-.19-1.845-1.074-2.768-.73-.922-.922-1.231-.922-2.767v-2.23l13.53 4.075c4.88 1.46 6.537 8.149 6.537 12.147 0 8.074-4.348 8.226-6.884 7.919v.307c4.537 2.384 4.882 3.844 5.421 7.381 1.075 5.689 1.614 9.764 2.881 11.456.539.846 1.118 1.152 1.118 2.075v3.077l-8.31-2.47zm-4.88-25.76l.885.23c1.266.385 2.345-.385 2.345-5.767 0-4.92-1.271-6.227-2.345-6.612l-.885-.307v12.46zm-16.26-15.07c0-1.614-.191-1.921-1.113-2.844-.692-.846-.884-1.152-.884-2.613v-2.229l6.535 1.69v2.229c0 1.46-.23 1.614-.922 2.152-.732.462-.923.693-.923 2.23v23.218c0 5.613-.73 11.995-8.302 10.072-6.535-1.615-8.498-5.689-8.498-13.608v-23.91c0-1.539-.19-1.846-1.075-2.768-.73-.846-1.078-1.155-1.078-2.615v-2.229l11.533 2.845v2.23c0 1.536-.346 1.691-1.078 2.152-.882.538-1.075.692-1.075 2.229v24.372c0 4.151.884 6.227 3.46 6.843 2.498.615 3.42-.922 3.42-5.997v-23.44zm-33.79 27.22v-2.229c0-1.537.153-1.691 1.075-2.152.692-.54.884-.771.884-2.306v-29.523l-1.035-.231c-2.576-.615-1.808 6.612-3.613 6.227l-.922-.231v-12.915c.922.461 1.611.922 2.533 1.306.887.309 2.002.616 3.424.923l6.688 1.538c1.461.307 2.498.461 3.42.538 1.075.154 1.806.079 2.693 0v12.917l-1.039-.231c-1.808-.461-.924-7.303-3.613-7.919l-1.117-.231v29.523c0 1.539.195 1.769 1.117 2.768.692.77.884 1.077.884 2.539v2.305l-11.37-2.62zm-6.54-28.45l-1.267-.23c-.696-.155-.696-1.308-1.809-6.075-.693-3.997-1.614-5.074-2.847-5.304-2.188-.385-3.803 4.229-3.803 15.377 0 11.531 1.422 17.068 4.151 17.605 2.689.461 3.768-3.614 4.15-7.841l2.193 1.845c0 8.533-3.269 12.07-8.15 11.069-6.844-1.229-10.688-11.378-10.688-23.602 0-12.148 3.844-20.912 9.265-19.989 2.653.537 4.69 3.304 5.919 3.535 1.27.23 1.27-.768 1.461-.691l1.423.23v14.07zm-31.4 22.53v-2.307c0-1.538.155-1.69.922-2.23.884-.537 1.039-.768 1.039-2.306v-27.37c0-1.538-.155-1.844-1.039-2.691-.767-.768-.922-1.077-.922-2.537v-2.306l11.378 1.845v2.306c0 1.46-.192 1.69-1.114 2.152-.691.615-.845.846-.845 2.385v27.37c0 1.538.153 1.844.845 2.69.922.769 1.114.999 1.114 2.537v2.229l-11.37-1.75zm-11.72-8.23c0 1.538.151 1.844 1.075 2.615.691.768 1.075.999 1.075 2.537v2.228l-11.569-1.305v-2.23c0-1.538.19-1.769 1.078-2.306.882-.615 1.075-.846 1.075-2.384v-27.371c0-1.538-.193-1.844-1.075-2.614-.888-.768-1.078-.999-1.078-2.537v-2.229l11.725 1.385c5.649.614 7.804 6.919 7.804 13.607 0 9.15-4.384 11.84-8.495 11.379l-1.614-.152v9.37zm0-14.45l.691.154c1.268.077 2.189-1.384 2.189-7.689 0-6.15-1.114-7.379-2.381-7.455l-.5-.079v15.08zm-30.57 13.38c0-3.383 1.461-5.841 3.267-5.766 1.769.154 3.229 2.844 3.229 6.227 0 3.462-1.461 5.92-3.229 5.844-1.81-.15-3.27-2.77-3.27-6.3m-3.27-24.07l-.687-.076c-2.389-.077-1.812-8.302-5.809-8.457-1.808-.076-2.498 1.921-2.498 4.075 0 6.305 10.456 7.459 10.456 20.988 0 7.382-3.768 13.839-8.842 13.609-2.346-.077-4.151-2.23-5.035-2.306-.923 0-1.27.691-1.463 1.152l-1.614-.076v-12.687h1.079c2.343.077 1.419 8.611 5.763 8.842 1.81.152 3.268-1.692 3.268-4.767 0-8.381-9.952-7.458-9.952-20.605 0-7.304 2.92-13.147 7.61-12.917 3.037.154 3.959 1.845 5.226 1.923.193 0 .692-.154 1.271-1.001h1.227v12.33zm-29.59-14.07c7.228 0 11.184 9.609 11.184 21.68 0 12.146-3.956 21.68-11.184 21.68-7.379 0-11.227-9.534-11.227-21.68 0-12.07 3.85-21.68 11.23-21.68m0 38.68c1.959 0 2.881-3.614 2.881-16.991 0-13.302-.922-16.992-2.881-16.992-2.154 0-2.924 3.69-2.924 16.992-.01 13.37.76 16.99 2.92 16.99m-20.42 4.38L258.92 171.3c-.846-4.921-1.383-5.92-2.154-5.92l-.5.076v11.609c0 1.539.155 1.847 1.039 2.46.769.616.923.846.923 2.385v2.229l-11.378.462v-2.23c0-1.462.191-1.692 1.113-2.384.695-.769.886-1 .886-2.614v-27.37c0-1.538-.191-1.769-.886-2.384-.922-.692-1.113-.923-1.113-2.385v-2.228l13.531-.616c5.074-.231 6.497 5.92 6.497 9.919 0 8.148-4.308 9.764-6.842 10.302v.23c4.688.847 4.879 2.152 5.572 5.535 1.115 5.229 1.461 9.227 2.732 10.456.765.616 1.267.691 1.267 1.693v3.074l-8.31.38zm-5.03-24.07l.886-.077c1.268 0 2.345-1.153 2.345-6.535 0-4.922-1.268-5.844-2.345-5.766h-.886v12.38zm-30.56-8.84c0-1.538-.193-1.769-1.077-2.46-.729-.538-1.077-.769-1.077-2.228v-2.23l13.532-1.307c3.613-.307 6.344 3.229 6.344 9.071 0 5.845-2.922 9.458-5.576 9.688v.462c3.422.076 6.458 2.613 6.458 10.146 0 8.074-3.036 11.918-7.766 12.38l-12.993 1.153v-2.23c0-1.462.348-1.769 1.077-2.46.884-.847 1.077-1.077 1.077-2.615v-27.37zm7.26 28.83h.498c1.809-.231 3.075-2 3.075-7.227 0-5.229-1.266-6.766-3.075-6.612l-.498.077v13.76zm0-19.6l.498-.078c1.461-.152 2.345-1.845 2.345-6.151 0-4.458-.884-5.996-2.345-5.842h-.498v12.07zm-30.9 27.6l-2.385-12.456c-.884-4.843-1.459-5.842-2.154-5.765l-.536.076v11.687c0 1.539.191 1.691 1.075 2.307.731.615 1.077.768 1.077 2.229v2.307l-11.532 1.614v-2.306c0-1.462.153-1.769 1.077-2.537.729-.846.882-1.077.882-2.615v-27.37c0-1.539-.153-1.769-.882-2.385-.924-.538-1.077-.769-1.077-2.228v-2.308l13.533-1.845c5.034-.613 6.494 5.382 6.494 9.379 0 8.15-4.342 10.149-6.842 10.841v.385c4.537.308 4.881 1.691 5.576 4.998 1.115 5.15 1.458 9.072 2.727 10.226.693.538 1.27.538 1.27 1.538v3.075l-8.31 1.16zm-5.08-23.61l.884-.152c1.268-.154 2.383-1.462 2.383-6.766 0-4.922-1.115-5.766-2.383-5.613l-.884.153v12.38zm-28.37-5.45c0-1.537-.193-1.691-1.077-2.307-.73-.537-1.075-.691-1.075-2.152v-2.306l12.492-2.23c1.77-.385 3.923-1.152 5.036-1.769v12.841l-1.113.23c-1.077.153-.693-6.92-4.154-6.305l-2.883.538v12.147l.886-.152c2.383-.462 1.654-4.46 2.92-4.767l1.077-.155v13.302l-1.077.231c-1.266.23-.538-4.075-2.92-3.613l-.886.154v14.529l3.462-.614c4.306-.846 3.074-9.457 4.881-9.842l1.038-.23v13.993l-18.758 3.383v-2.229c0-1.539.345-1.769 1.075-2.615.884-.845 1.077-1.153 1.077-2.689v-27.37zm-9.03 23.91v-22.53c0-1.46-.155-1.767-.923-2.228-.846-.462-1.037-.616-1.037-2.154v-2.23l6.688-1.536v2.228c0 1.539-.193 1.769-.923 2.615-.882.922-1.113 1.153-1.113 2.767v34.521l-7.037 1.614-7.379-26.832v21.374c0 1.539.191 1.691.886 2.306.921.462 1.113.616 1.113 2.154v2.229l-6.88 1.538v-2.306c0-1.46.346-1.769 1.075-2.613.923-.924 1.079-1.155 1.079-2.691v-27.371c0-1.536-.155-1.767-1.079-2.306-.729-.462-1.075-.614-1.075-2.152v-2.229l9.034-2.076 7.57 27.91zm-25.83 18.6l-2.349-12.225c-.884-4.688-1.421-5.611-2.188-5.38l-.5.154v11.686c0 1.538.153 1.69 1.075 2.152.729.461.884.615.884 2.154v2.229l-11.378 3.152v-2.23c0-1.462.195-1.845 1.117-2.691.69-.923 1.077-1.231 1.077-2.767v-27.372c0-1.537-.386-1.768-1.077-2.229-.922-.463-1.117-.615-1.117-2.154v-2.229l13.532-3.767c5.112-1.383 6.498 4.458 6.498 8.458 0 8.071-4.308 10.762-6.844 11.915v.231c4.69-.231 4.881 1.077 5.613 4.229 1.075 4.998 1.458 8.918 2.69 9.841.73.54 1.268.461 1.268 1.384v3.152l-8.29 2.32zm-5.04-22.91l.922-.307c1.232-.385 2.307-1.769 2.307-7.149 0-4.844-1.27-5.537-2.307-5.228l-.922.23v12.46zm-27.83 22.07c-.345 1.847-.538 3.23-.538 4.229 0 2.922 1.999 1.231 1.999 2.846v4.306l-8.305 3.381.848-5.228c0-1.922 1.652-.614 2.576-5.689l5.227-27.294c.155-.844.347-1.69.347-2.306 0-.922-.347-1.69-.347-2.458 0-.54.347-.924 3.076-3.383 2.307-2 2.881-2.46 3.229-2.539.193-.076.384.078.384.616l5.96 31.522c.689 4.075 2.498 2.537 2.498 4.152v3.306l-12.071 3.921v-3.152c0-2.075 2.307-1.538 2.307-4.229 0-1.306-.348-2.152-.501-4.151l-6.7 2.14zm.92-5.54l4.881-1.538-2.383-12.762-2.5 14.3zm-22.067-6.38l-.689-3.536c-.424-2.384-1.115-1.384-1.115-2.769v-3.075l10.455-4.381v2.689c0 2.229-1.806 2.229-1.806 4.69 0 .923.422 2 .576 3.307l2.154 14.53v-.077l2.498-17.375c.229-1.154.424-2.075.424-2.615 0-2.614-1.652-1.075-1.652-3.229v-2.844l5.956-2.539v3c0 2.152-1.077 1.154-1.806 5.229l-5.42 37.44-4.69 2-3.613-23.219h-.193l-3.958 27.371-3.96 2.381-5.229-34.365c-.576-4.075-1.999-1.692-1.999-3.537v-3.305l10.302-4.306v3.229c0 .999-1.308 1.614-1.308 3.535 0 .462 0 1.231.193 2.385l2.152 15.223h.231l2.497-15.81z" fill="#867b6e"/><path d="M253.34 195.84c6.498-.384 17.528-.154 22.602.307 0 33.83-.193 62.737-.193 93.413 0 20.757-.73 44.054-.73 62.354-.191 7.071.923 13.686-.191 20.678-.345 1.231-1.036 4.076-3.072 4.612-3.229.927-12.265-9.071-14.225-11.145-18.067-19.375-31.253-41.054-42.479-67.428-3.998-9.453-8.303-18.682-11.917-28.213-1.997-5.156-3.651-10.917-6.496-15.302-5.114 4.537-12.993 35.828-25.14 24.753-5.229-4.686-9.919-11.912-13.878-19.371-6.882-13.071-13.955-32.139-17.914-44.362-.498-1.69-.729-3.152-1.268-4.458 11.034-3.383 23.488-6.228 35.444-7.842 1.23 3.69 2.153 6.996 3.575 10.379.729 1.614 1.459 4.919 3.958 4.612.923-.076 2.729-1.69 3.269-2.152 6.151-3.922 4.19-9.227 3.653-15.147 11.339-1.692 28.522-4.15 38.286-3.613 2.307 15.453 7.957 46.896 10.109 49.667.923-5.612 1.077-17.991.923-24.988-.23-9.61-.23-20.373 0-25.755 4.88-.7 11.33-.85 15.68-1M294.54 195.99c42.442.538 110.56 11.3 123.02 15.836-.922-.307 1.423 1.77 1.806 2.847 3.269 8.534 2.498 17.606 0 25.757-15.721 54.431-66.504 104.87-116.52 134.08-2.881 1.691-4.344 3.075-8.11 2.383-2.189-1.307-2.381-3.538-2.381-19.298 0-16.453.73-44.282.343-63.042-.343-29.297 0-73.886-.151-92.645 0-6.01 1.26-6.01 1.99-5.93m62.51 19.3c-7.074.079-24.566 6.537-24.95 11.764.539-8.458-1.079 73.961-1.23 84.11 5.229-5.46 11.188-12.071 16.608-17.914 9.185-9.843 40.245-41.363 31.251-66.04-2.92-7.69-10.45-12.15-21.68-11.92M157.96 94.66c4.881.23 4.342 10.379 4.537 15.146 0 8.381 0 20.527.345 28.984-11.377 2.767-22.949 4.459-34.675 7.15-.574-7.073-2.035-31.215 1.27-35.904 3.191-4.999 9.917-8.766 15.686-11.457 3.08-1.539 8.16-4.078 12.84-3.923M217.05 66.981c3.269-.077 4.499.078 4.499 6.073 0 13.686-.193 43.054.576 59.278-3.265.383-7.457.769-11.761 1.075-8.496.615-17.53 1.769-25.833 2.846-.193-.616-.347-.231-1.115-.308-1.077-13.763-.693-25.679-.347-40.901.191-5.92 0-13.454 1.806-17.146 2.14-4.529 24.4-10.757 32.17-10.912M324.53 58.833c48.978 9.531 96.488 38.748 107.48 52.432 6.501 8.074 12.306 22.527 7.768 36.059-14.299-3.229-27.483-5.919-41.556-7.995-.151-3.076-.151-5.768-1.614-8.92-7.07-13.531-24.218-22.526-42.094-29.676-3.96-1.614-15.339-5.766-20.411-5.535-.384.076-1.614.076-1.423 2.152-.191 5.844-.191 27.139-.191 34.982-12.302-.77-26.37-1.152-38.865-1.539-.345-9.533.191-52.203 0-61.659-.153-8.381 0-6.075 0-9.149-.02-6.676 4.33-6.367 30.89-1.139M269.25 55.219c3.42-.23 6.492-.154 7.379 2.076 1.267 2.998.345 8.533.345 12.225 0 11.609-.153 24.294-.345 35.366 0 8.842.576 21.143 0 25.833-11.918 0-24.18.769-36.829.769-.191-8.15.193-21.067 0-29.292 0-4.689.193-26.678.193-32.829-.193-2.846 0-5.996.846-8.073 2.38-4.774 20.79-5.541 28.4-6.079" fill="#867b6e"/><path d="M286.78.018c6.84-.231 17.491 1.844 25.793 3.076 16.262 2.383 32.021 4.306 47.359 6.918 10.495 1.769 19.337 2.844 28.91 4.613 3.611.691 7.57 1.153 10.261 2.69 8.341 4.843 4.385 20.22 14.146 23.834 7.728 2.844 26.717 2.613 34.102 5.996 7.07 3.152 1.612 15.608 9.567 18.222 3.077 1.077 6.344 1 9.768 1.231 6.686.538 31.636 2.613 34.329 6.842 1.612 2.768 1.806 10.072 1.957 16.607.191 14.914 1.306 37.673-.345 53.356-.882 8.534-1.27 16.76-2.691 24.525-6.688-2.921-12.993-5.765-19.337-8.071-5.801-2.075-11.184-3.768-16.988-5.689.382-5.382.922-13.071 1.266-19.683.349-5.996.73-10.456 1.115-17.451.348-7.075 1.27-17.837-.767-20.759-2.502-3.921-22.026-4.458-29.253-4.998-3.422-.231-8.115.079-10.648-1.077-4.691-1.998-3.269-16.914-8.497-20.373-2.346-1.615-5.614-1.385-9.034-1.615-7.958-.461-26.023.538-29.292-4.46-1.963-2.691-3.769-11.531-5.035-14.993-1.231-3.305-2.153-5.228-5.422-6.457-1.613-.616-3.076-1-4.882-1.384-8.65-1.693-18.066-3.076-27.446-4.613-14.647-2.384-29.255-5.689-45.169-6.842-16.759-1.155-39.709 3.92-57.085 6.457a735.918 735.918 0 0 0-22.564 3.614c-3.806.616-7.574 1.153-10.648 2.613-8.305 3.999-4.344 20.76-13.531 23.758-6.153 1.997-17.376 1.229-23.874 1.459-3.613.077-7.225 0-9.764 1.077-6.496 2.691-3.959 19.144-9.571 20.682-2.92.769-6.496.844-9.571 1.075-7.035.616-27.256.924-30.176 5.382-2.538 4.075-1.077 22.526-.691 27.985.343 4.229 1.229 16.224 1.613 28.446-7.226 2.385-15.03 4.614-22.22 7.535-6.151 2.308-10.11 4.46-13.954 6.229-3.036-28.908-2.844-59.815-2.152-80.421 0-3.996.345-10.608 1.461-12.301 2.535-4.305 27.831-6.611 34.479-7.148 3.615-.309 6.883.307 10.112-.692 6.88-2.076 2.922-14.377 8.15-17.915 9.032-5.996 27.831-2.767 37.056-8.15 6.496-3.844 4.883-17.452 11.188-21.834 4.497-2.998 16.453-3.69 24.025-4.998 16.991-2.998 33.945-5.073 51.666-7.458 12.57-1.76 30.87-4.451 42.25-4.835" fill="#867b6e"/></svg>